<mxfile modified="2024-06-30T06:35:10.673Z" host="app.diagrams.net" agent="Mozilla/5.0 (Windows NT 10.0; Win64; x64) AppleWebKit/537.36 (KHTML, like Gecko) Chrome/126.0.0.0 Safari/537.36" etag="utrHdFiJ-hJjViRGL18U" version="24.6.4" type="github">
  <diagram id="l8hXMBHkgcEJcSW0mbfh" name="Page-1">
    <mxGraphModel dx="2440" dy="908" grid="1" gridSize="10" guides="1" tooltips="1" connect="1" arrows="1" fold="1" page="1" pageScale="1" pageWidth="1169" pageHeight="827" math="0" shadow="0">
      <root>
        <mxCell id="0" />
        <mxCell id="1" parent="0" />
        <mxCell id="s8ikmo4zl2_qSsBDsND9-44" style="edgeStyle=orthogonalEdgeStyle;rounded=0;orthogonalLoop=1;jettySize=auto;html=1;" edge="1" parent="1" source="s8ikmo4zl2_qSsBDsND9-1" target="s8ikmo4zl2_qSsBDsND9-43">
          <mxGeometry relative="1" as="geometry" />
        </mxCell>
        <mxCell id="s8ikmo4zl2_qSsBDsND9-1" value="" style="swimlane;startSize=0;" vertex="1" parent="1">
          <mxGeometry x="30" y="220" width="440" height="250" as="geometry" />
        </mxCell>
        <mxCell id="s8ikmo4zl2_qSsBDsND9-10" value="" style="shape=image;verticalLabelPosition=bottom;labelBackgroundColor=default;verticalAlign=top;aspect=fixed;imageAspect=0;image=data:image/png,iVBORw0KGgoAAAANSUhEUgAAAO0AAADVCAMAAACMuod9AAAAeFBMVEUAAAD///+Dg4PY2NgvLy9RUVErKyuIiIj8/PyysrLh4eGOjo5ra2s3Nzf5+flFRUVlZWVycnKmpqadnZ3p6ekUFBR6enoZGRnLy8s+Pj4sLCzx8fEmJiZMTEzPz88ICAjExMSwsLBcXFy7u7ugoKCWlpYeHh5YWFgRguI2AAAEjElEQVR4nO3ZaUPiOhiG4VARFKSyL4Isg47//x+eLkla2qwcp3y5ry8zlBDzdHmbpkIAAAAAAAAAAAAAAAAAAAAAAAAAAAAAAAAAAAAAAADgdwzGw9LA2Ww1TDw2suU0WeeStbmjWWn9XH7c+Lr1jCvSc096cjbr93wmzQ6/Tf3M1be70H6f/0na3tXVbBCcVrypLdN2N2v13Y/c0E8flLY3/J20+vilH81edqrxWG15XFq9w/9nWrGVm5aNTjZ7+UV1Gj0wbbqxNotKK1Sq820nT3LzqNrUf3lY2vowzGmXT1b9WuuJyrCo93Ex7NTBTR9yL9U3jd7/WVp7pZJpXZd2nalS6Qr1x/qzcn+8hI49nkyrDsbY0mzg/rpl0TrB39UWxx577SjtWF1qlkoVm7ZVqVbtCtXWVdpE7fr0YGwWnVYsZYfH8qOqUM5JTFdphyKRwzFXqvi0E3XmFpXqonbmX9dvuksr/1TrtlGKT1tVqpkQQ/V/xy1ddJpWn2ymSHekrSrVR0iFynWZVhcSwwT3nrTiLPtbqo5fPT/oMq34lIN6aVequ9LqSiW5H7NEx2kdlUqmfZ2+tRlOBel2XpiefIPpNq24yIGdm81c8+S9vfe3ejv/jLfjtLpSNR/FXWmbjzp131WzxD+YrtPaKtW9aXWl6l0CBtN12mo6e1up7k4rRrLVMWAwnafVjyq3Ge68bvNfqko19w+m+7TiIke3rTeTafcjA89Rm6q9YlmFrPGmnaobwGQ4/0rMU3qXdlpxlKOrV6rI51s1uOIE0ZVq52vvTSu/nMghXr33tAZDWl2p3qptd80uDmnvnP+rKtV+5fmBN21aXDaDfDErza8Q+2KLmSFttTRYLRrelTYvUAv1n5xvMhWYNjuy2+ws/lxGT+5MaQ2V6p60V32CHAIrVWDa7NAWn3YBk9FbxrR6SVhXqjvSqss1X0b7o84W9xQjLO1GpRWnU+SFa06rK5VaNIxPqwMWpXisPjkrVeCxzc7grXNVwMqSVj++zMqP0Wk/GifvVX7c29esg9MW97TRZerqysyWVleqcp04Om1rChVSqQLTZne2omEaMGG5ZUsrZnJ0y+LSiE2rbzp6y0odbMcjfWja7DqZj/L+9r9z3YpGpYqcXegJRW2lP6BShafNh5TsPS8m2+xpdaXKz5e490D1BbiKXoqzPugGpE2zSrySs5RVL/8Yw5H2VKtUUWltt1ddqWxzKmvaz8UinyCfimObpKmc1Dpf1EWmrV6c7+LSNhbOK75KZUp7+JoWV0H+m3VxXf2oV8Nj39NmVFpdqfbiEJFWvRRpPwlu1NtaS6UypR3lr8myg9o7Jou0XGV4ytqcvxf5Oov/uSo8rfhSR2kVnlYvIxsmEj/qO/PfM6TNd9Cwemycqz1Q/xhO/n3brUVVKr3gYqWy6ReXM1N/ulIZFyrlhX2zLVme839211G63KqnsvVxmaaja/Sb7NPgkBlYn8X6pUnfR9353iXLFHGimL78W3YVmwEAAAAAAAAAAAAAAAAAAAAAAAAAAAAAAAAAAAAAgMf5D+CTNGY7cUYoAAAAAElFTkSuQmCC;" vertex="1" parent="s8ikmo4zl2_qSsBDsND9-1">
          <mxGeometry x="160" y="120" width="111.27" height="100" as="geometry" />
        </mxCell>
        <mxCell id="s8ikmo4zl2_qSsBDsND9-29" style="edgeStyle=orthogonalEdgeStyle;rounded=0;orthogonalLoop=1;jettySize=auto;html=1;entryX=0.5;entryY=0;entryDx=0;entryDy=0;" edge="1" parent="s8ikmo4zl2_qSsBDsND9-1" source="s8ikmo4zl2_qSsBDsND9-24" target="s8ikmo4zl2_qSsBDsND9-25">
          <mxGeometry relative="1" as="geometry">
            <Array as="points">
              <mxPoint x="80" y="80" />
              <mxPoint x="350" y="80" />
            </Array>
          </mxGeometry>
        </mxCell>
        <mxCell id="s8ikmo4zl2_qSsBDsND9-24" value="&lt;font style=&quot;font-size: 16px;&quot;&gt;&lt;b&gt;Frontend&lt;/b&gt;&lt;/font&gt;" style="rounded=1;whiteSpace=wrap;html=1;" vertex="1" parent="s8ikmo4zl2_qSsBDsND9-1">
          <mxGeometry x="20" y="136" width="120" height="60" as="geometry" />
        </mxCell>
        <mxCell id="s8ikmo4zl2_qSsBDsND9-30" style="edgeStyle=orthogonalEdgeStyle;rounded=0;orthogonalLoop=1;jettySize=auto;html=1;entryX=0.5;entryY=0;entryDx=0;entryDy=0;" edge="1" parent="s8ikmo4zl2_qSsBDsND9-1" source="s8ikmo4zl2_qSsBDsND9-25" target="s8ikmo4zl2_qSsBDsND9-24">
          <mxGeometry relative="1" as="geometry">
            <mxPoint x="80" y="130" as="targetPoint" />
            <Array as="points">
              <mxPoint x="350" y="80" />
              <mxPoint x="81" y="80" />
            </Array>
          </mxGeometry>
        </mxCell>
        <mxCell id="s8ikmo4zl2_qSsBDsND9-31" value="&lt;b&gt;&lt;font style=&quot;font-size: 17px;&quot;&gt;HTTP&lt;/font&gt;&lt;/b&gt;" style="edgeLabel;html=1;align=center;verticalAlign=middle;resizable=0;points=[];" vertex="1" connectable="0" parent="s8ikmo4zl2_qSsBDsND9-30">
          <mxGeometry x="0.0236" y="-1" relative="1" as="geometry">
            <mxPoint as="offset" />
          </mxGeometry>
        </mxCell>
        <mxCell id="s8ikmo4zl2_qSsBDsND9-25" value="&lt;b&gt;&lt;font style=&quot;font-size: 16px;&quot;&gt;Backend&lt;/font&gt;&lt;/b&gt;" style="rounded=1;whiteSpace=wrap;html=1;" vertex="1" parent="s8ikmo4zl2_qSsBDsND9-1">
          <mxGeometry x="290" y="136" width="120" height="60" as="geometry" />
        </mxCell>
        <mxCell id="s8ikmo4zl2_qSsBDsND9-53" value="&lt;b&gt;&lt;font style=&quot;font-size: 21px;&quot;&gt;Web Server&lt;/font&gt;&lt;/b&gt;" style="text;html=1;align=center;verticalAlign=middle;resizable=0;points=[];autosize=1;strokeColor=none;fillColor=none;" vertex="1" parent="s8ikmo4zl2_qSsBDsND9-1">
          <mxGeometry x="145.64" width="140" height="40" as="geometry" />
        </mxCell>
        <mxCell id="s8ikmo4zl2_qSsBDsND9-39" style="edgeStyle=orthogonalEdgeStyle;rounded=0;orthogonalLoop=1;jettySize=auto;html=1;entryX=1;entryY=0.5;entryDx=0;entryDy=0;" edge="1" parent="1" source="s8ikmo4zl2_qSsBDsND9-16" target="s8ikmo4zl2_qSsBDsND9-23">
          <mxGeometry relative="1" as="geometry">
            <Array as="points">
              <mxPoint x="930" y="610" />
            </Array>
          </mxGeometry>
        </mxCell>
        <mxCell id="s8ikmo4zl2_qSsBDsND9-16" value="" style="swimlane;startSize=0;" vertex="1" parent="1">
          <mxGeometry x="770" y="158" width="300" height="283" as="geometry" />
        </mxCell>
        <mxCell id="s8ikmo4zl2_qSsBDsND9-2" value="" style="shape=image;verticalLabelPosition=bottom;labelBackgroundColor=default;verticalAlign=top;aspect=fixed;imageAspect=0;image=data:image/svg+xml,PHN2ZyB4bWxucz0iaHR0cDovL3d3dy53My5vcmcvMjAwMC9zdmciIHZpZXdCb3g9IjAgMCAyNTYgMjU2IiBmaWxsPSJub25lIiBoZWlnaHQ9IjI1NiIgd2lkdGg9IjI1NiI+PHJlY3Qgcng9IjYwIiBmaWxsPSIjRjRGMkVEIiBoZWlnaHQ9IjI1NiIgd2lkdGg9IjI1NiIvPjxwYXRoIGQ9Ik0xMjcuMjc5IDI5Qzc2LjUwNjYgMjkgNzkuNjc3MiA1MS4wMTggNzkuNjc3MiA1MS4wMThMNzkuNzMzOCA3My44Mjg0SDEyOC4xODVWODAuNjc3Mkg2MC40ODkzQzYwLjQ4OTMgODAuNjc3MiAyOCA3Ni45OTI2IDI4IDEyOC4yMjJDMjggMTc5LjQ1MiA1Ni4zNTczIDE3Ny42MzYgNTYuMzU3MyAxNzcuNjM2SDczLjI4MTJWMTUzLjg2M0M3My4yODEyIDE1My44NjMgNzIuMzY5IDEyNS41MDYgMTAxLjE4NiAxMjUuNTA2SDE0OS4yNEMxNDkuMjQgMTI1LjUwNiAxNzYuMjM5IDEyNS45NDIgMTc2LjIzOSA5OS40MTIzVjU1LjU0NjFDMTc2LjIzOSA1NS41NDYxIDE4MC4zMzggMjkgMTI3LjI3OSAyOVpNMTAwLjU2MyA0NC4zMzlDMTA1LjM4NCA0NC4zMzkgMTA5LjI4IDQ4LjIzNTEgMTA5LjI4IDUzLjA1NTZDMTA5LjI4IDU3Ljg3NjEgMTA1LjM4NCA2MS43NzIzIDEwMC41NjMgNjEuNzcyM0M5NS43NDI2IDYxLjc3MjMgOTEuODQ2NSA1Ny44NzYxIDkxLjg0NjUgNTMuMDU1NkM5MS44NDY1IDQ4LjIzNTEgOTUuNzQyNiA0NC4zMzkgMTAwLjU2MyA0NC4zMzlaIiBmaWxsPSJ1cmwoI3BhaW50MF9saW5lYXJfMl81NikiLz48cGF0aCBkPSJNMTI4LjcyMSAyMjcuOTU4QzE3OS40OTMgMjI3Ljk1OCAxNzYuMzIzIDIwNS45NDEgMTc2LjMyMyAyMDUuOTQxTDE3Ni4yNjYgMTgzLjEzSDEyNy44MTVWMTc2LjI4MUgxOTUuNTExQzE5NS41MTEgMTc2LjI4MSAyMjggMTc5Ljk2NiAyMjggMTI4LjczNkMyMjggNzcuNTA2MiAxOTkuNjQzIDc5LjMyMyAxOTkuNjQzIDc5LjMyM0gxODIuNzE5VjEwMy4wOTZDMTgyLjcxOSAxMDMuMDk2IDE4My42MzEgMTMxLjQ1MyAxNTQuODE0IDEzMS40NTNIMTA2Ljc2QzEwNi43NiAxMzEuNDUzIDc5Ljc2MDcgMTMxLjAxNiA3OS43NjA3IDE1Ny41NDZWMjAxLjQxMkM3OS43NjA3IDIwMS40MTIgNzUuNjYxNSAyMjcuOTU4IDEyOC43MjEgMjI3Ljk1OFpNMTU1LjQzNyAyMTIuNjE5QzE1MC42MTYgMjEyLjYxOSAxNDYuNzIgMjA4LjcyMyAxNDYuNzIgMjAzLjkwM0MxNDYuNzIgMTk5LjA4MiAxNTAuNjE2IDE5NS4xODYgMTU1LjQzNyAxOTUuMTg2QzE2MC4yNTcgMTk1LjE4NiAxNjQuMTU0IDE5OS4wODIgMTY0LjE1NCAyMDMuOTAzQzE2NC4xNTQgMjA4LjcyMyAxNjAuMjU3IDIxMi42MTkgMTU1LjQzNyAyMTIuNjE5WiIgZmlsbD0idXJsKCNwYWludDFfbGluZWFyXzJfNTYpIi8+PGRlZnM+PGxpbmVhckdyYWRpZW50IGdyYWRpZW50VW5pdHM9InVzZXJTcGFjZU9uVXNlIiB5Mj0iMTQ1LjAyIiB5MT0iNDYuODk2IiB4Mj0iMTQ2LjMzMyIgeDE9IjQ3LjIyIiBpZD0icGFpbnQwX2xpbmVhcl8yXzU2Ij48c3RvcCBzdG9wLWNvbG9yPSIjMzg3RUI4Ii8+PHN0b3Agc3RvcC1jb2xvcj0iIzM2Njk5NCIgb2Zmc2V0PSIxIi8+PC9saW5lYXJHcmFkaWVudD48bGluZWFyR3JhZGllbnQgZ3JhZGllbnRVbml0cz0idXNlclNwYWNlT25Vc2UiIHkyPSIyMTAuNTIyIiB5MT0iMTA5LjkwNSIgeDI9IjIxNC40OTIiIHgxPSIxMDguMDU2IiBpZD0icGFpbnQxX2xpbmVhcl8yXzU2Ij48c3RvcCBzdG9wLWNvbG9yPSIjRkZFMDUyIi8+PHN0b3Agc3RvcC1jb2xvcj0iI0ZGQzMzMSIgb2Zmc2V0PSIxIi8+PC9saW5lYXJHcmFkaWVudD48L2RlZnM+PC9zdmc+;" vertex="1" parent="s8ikmo4zl2_qSsBDsND9-16">
          <mxGeometry x="51" y="158" width="60" height="60" as="geometry" />
        </mxCell>
        <mxCell id="s8ikmo4zl2_qSsBDsND9-3" value="" style="shape=image;verticalLabelPosition=bottom;labelBackgroundColor=default;verticalAlign=top;aspect=fixed;imageAspect=0;image=data:image/svg+xml,PHN2ZyB4bWxucz0iaHR0cDovL3d3dy53My5vcmcvMjAwMC9zdmciIGZpbGw9Im5vbmUiIHZpZXdCb3g9IjAgMCAyNTYgMjU2IiBoZWlnaHQ9IjI1NiIgd2lkdGg9IjI1NiI+JiN4YTs8ZyBjbGlwLXBhdGg9InVybCgjY2xpcDBfNDA0XzIyMCkiPiYjeGE7PHJlY3QgZmlsbD0iIzU5Qjk0MyIgcng9IjYwIiBoZWlnaHQ9IjI1NiIgd2lkdGg9IjI1NiIvPiYjeGE7PHBhdGggZmlsbD0id2hpdGUiIGQ9Ik0yMzMuNzc2IC02SDI1NlYyNjFIMjUzLjkzNEMyNTQuNDU2IDI2MSAyNTQuOTU2IDI2MC43OTMgMjU1LjMyNiAyNjAuNDI1QzI1NS42OTUgMjYwLjA1NyAyNTUuOTAyIDI1OS41NTcgMjU1LjkwMiAyNTkuMDM3VjMzLjczNTlDMjU2LjA1OSAzMy4yNzc3IDI1Ni4wMjYgMzIuNzc2MiAyNTUuODEyIDMyLjM0MTdDMjU1LjU5OCAzMS45MDczIDI1NS4yMiAzMS41NzU1IDI1NC43NiAzMS40MTkzQzI1NC4zMDEgMzEuMjYzMSAyNTMuNzk4IDMxLjI5NTMgMjUzLjM2MyAzMS41MDg4QzI1Mi45MjcgMzEuNzIyNCAyNTIuNTk0IDMyLjA5OTcgMjUyLjQzOCAzMi41NTc5TDE2OS43NjIgMTI1LjE0NEMxNjkuNTI2IDEyNS4zOTkgMTY5LjIzOSAxMjUuNjAyIDE2OC45MjEgMTI1Ljc0MUMxNjguNjAzIDEyNS44OCAxNjguMjU5IDEyNS45NTEgMTY3LjkxMSAxMjUuOTUxQzE2Ny41NjQgMTI1Ljk1MSAxNjcuMjIgMTI1Ljg4IDE2Ni45MDEgMTI1Ljc0MUMxNjYuNTgzIDEyNS42MDIgMTY2LjI5NyAxMjUuMzk5IDE2Ni4wNjEgMTI1LjE0NEwxMjMuODU3IDgxLjcxNzRDMTIzLjQ5OSA4MS4yNzE3IDEyMy4zMDQgODAuNzE3NyAxMjMuMzA0IDgwLjE0NjhDMTIzLjMwNCA3OS41NzU4IDEyMy40OTkgNzkuMDIxOSAxMjMuODU3IDc4LjU3NjJMMTM3Ljc5MyA2MC43NUMxMzguMDI3IDYwLjQyNTcgMTM4LjMzNCA2MC4xNjE1IDEzOC42OSA1OS45NzkzQzEzOS4wNDYgNTkuNzk3MSAxMzkuNDQxIDU5LjcwMiAxMzkuODQxIDU5LjcwMkMxNDAuMjQxIDU5LjcwMiAxNDAuNjM1IDU5Ljc5NzEgMTQwLjk5MSA1OS45NzkzQzE0MS4zNDcgNjAuMTYxNSAxNDEuNjU1IDYwLjQyNTcgMTQxLjg4OCA2MC43NUwxNjUuNTEgODYuODIxOEMxNjUuNzQ2IDg3LjEwMjUgMTY2LjA0MSA4Ny4zMjgyIDE2Ni4zNzUgODcuNDgzMUMxNjYuNzA4IDg3LjYzNzkgMTY3LjA3MSA4Ny43MTgyIDE2Ny40MzkgODcuNzE4MkMxNjcuODA2IDg3LjcxODIgMTY4LjE3IDg3LjYzNzkgMTY4LjUwMyA4Ny40ODMxQzE2OC44MzYgODcuMzI4MiAxNjkuMTMxIDg3LjEwMjUgMTY5LjM2OCA4Ni44MjE4TDIzNS4xOTQgLTMuMTcyOTRDMjM1LjM3NyAtMy40Mzg5IDIzNS40ODUgLTMuNzQ4OTIgMjM1LjUwOCAtNC4wNzA3N0MyMzUuNTMgLTQuMzkyNjMgMjM1LjQ2NSAtNC43MTQ1OCAyMzUuMzIxIC01LjAwMzE0QzIzNS4xNzYgLTUuMjkxNzEgMjM0Ljk1NiAtNS41MzYzNiAyMzQuNjg1IC01LjcxMTY3QzIzNC40MTMgLTUuODg2OTcgMjM0LjEgLTUuOTg2NTMgMjMzLjc3NiAtNlpNMS45Njg0OCAtNkgwVi00LjAzNjc2QzAgLTQuNTU3NDUgMC4yMDczOTMgLTUuMDU2OCAwLjU3NjU1NCAtNS40MjQ5OEMwLjk0NTcxNSAtNS43OTMxNiAxLjQ0NjQgLTYgMS45Njg0OCAtNlpNMCAyNTkuMDM3VjI2MUgxLjk2ODQ4QzEuNDQ2NCAyNjEgMC45NDU3MTUgMjYwLjc5MyAwLjU3NjU1NCAyNjAuNDI1QzAuMjA3MzkzIDI2MC4wNTcgMCAyNTkuNTU3IDAgMjU5LjAzN1pNMTY4Ljk2OCAxNjMuMDRDMTY0LjA4IDE2Mi44OTIgMTU5LjMxNSAxNjQuNTc3IDE1NS42MTkgMTY3Ljc2MUMxNTEuOTIzIDE3MC45NDQgMTQ5LjU2OCAxNzUuMzkyIDE0OS4wMiAxODAuMjIyQzE0OC45OTYgMTgwLjMxNiAxNDguOTk0IDE4MC40MTQgMTQ5LjAxNCAxODAuNTA4QzE0OS4wMzQgMTgwLjYwMyAxNDkuMDc2IDE4MC42OTEgMTQ5LjEzNyAxODAuNzY3QzE0OS4xOTggMTgwLjg0MiAxNDkuMjc1IDE4MC45MDIgMTQ5LjM2NCAxODAuOTQzQzE0OS40NTIgMTgwLjk4MyAxNDkuNTQ5IDE4MS4wMDMgMTQ5LjY0NiAxODFIMTg4LjM2OUMxODguNDU4IDE4MSAxODguNTQ3IDE4MC45ODIgMTg4LjYyOCAxODAuOTQ2QzE4OC43MSAxODAuOTEgMTg4Ljc4MyAxODAuODU3IDE4OC44NDIgMTgwLjc5MUMxODguOTAxIDE4MC43MjUgMTg4Ljk0NiAxODAuNjQ3IDE4OC45NzIgMTgwLjU2MkMxODguOTk4IDE4MC40NzcgMTg5LjAwNiAxODAuMzg4IDE4OC45OTUgMTgwLjNDMTg4LjYxNCAxNzUuMzgzIDE4Ni4yOTggMTcwLjgxMyAxODIuNTQ5IDE2Ny41ODFDMTc4LjggMTY0LjM1IDE3My45MiAxNjIuNzE4IDE2OC45NjggMTYzLjA0Wk0yNi4xNDE0IDIxNi4wMDNDMzguNTgyOCAyMjYuOTA1IDU0Ljc5NjggMjMyLjU0IDcxLjMzNzYgMjMxLjcwOUg3MS4yNTg5QzEwMS4xMDEgMjMxLjcwOSAxMTUuNTEgMjE2LjQ3NCAxMTUuNTEgMTk2LjUyN0MxMTUuNTEgMTcxLjUxIDkyLjIzMSAxNjUuOTM3IDczLjg3MDcgMTYxLjU0MUM2MS45MTU5IDE1OC42NzggNTIuMDQ2NiAxNTYuMzE2IDUyLjA0NjYgMTQ5LjQxQzUyLjA0NjYgMTQyLjgxMyA1Ny43MTU4IDEzOC4zMzcgNjcuNzk0NCAxMzguMzM3Qzc4Ljc2NjMgMTM4LjIzNSA4OS40NDA1IDE0MS44OTQgOTguMDMwMiAxNDguNzAzQzk4LjI4NDEgMTQ4LjkyIDk4LjU3OTkgMTQ5LjA4MiA5OC44OTk0IDE0OS4xOEM5OS4yMTg4IDE0OS4yNzggOTkuNTU1IDE0OS4zMSA5OS44ODcyIDE0OS4yNzNDMTAwLjIxOSAxNDkuMjM2IDEwMC41NCAxNDkuMTMyIDEwMC44MzEgMTQ4Ljk2NkMxMDEuMTIxIDE0OC44MDEgMTAxLjM3MyAxNDguNTc3IDEwMS41NzMgMTQ4LjMxTDExMS4yNTggMTM0Ljg4MkMxMTEuNjk2IDEzNC40MjggMTExLjk0MSAxMzMuODIzIDExMS45NDEgMTMzLjE5M0MxMTEuOTQxIDEzMi41NjQgMTExLjY5NiAxMzEuOTU5IDExMS4yNTggMTMxLjUwNUM5OS42MDkxIDEyMi4wNjIgODQuOTIyNCAxMTcuMTUyIDY5LjkyMDMgMTE3LjY4NEM0My43Nzg5IDExNy42ODQgMjguMDMxMSAxMzIuOTE5IDI4LjAzMTEgMTUxLjIxNkMyOC4wMzExIDE3NS44MTggNTAuNDI5OSAxODEuMTIzIDY4LjY0NjggMTg1LjQzN0M4MS4xMzE3IDE4OC4zOTQgOTEuNjUyMyAxOTAuODg1IDkxLjY1MjMgMTk4LjgwNUM5MS42NTIzIDIwNS4wODcgODUuMzUzMiAyMTEuMDU1IDcyLjQ0IDIxMS4wNTVDNjAuMTc5MiAyMTEuMDkzIDQ4LjM2MDcgMjA2LjQ5IDM5LjM2OTYgMTk4LjE3NkMzOS4wOTE1IDE5OC4wMDcgMzguNzgyMyAxOTcuODk2IDM4LjQ2MDIgMTk3Ljg0N0MzOC4xMzgxIDE5Ny43OTkgMzcuODA5NiAxOTcuODE2IDM3LjQ5NDEgMTk3Ljg5N0MzNy4xNzg2IDE5Ny45NzcgMzYuODgyNCAxOTguMTIgMzYuNjIzIDE5OC4zMTZDMzYuMzYzNiAxOTguNTEzIDM2LjE0NjMgMTk4Ljc1OSAzNS45ODM4IDE5OS4wNEwyNi4xNDE0IDIxMi43ODNDMjUuNzQ4MyAyMTMuMjI4IDI1LjUzMTUgMjEzLjggMjUuNTMxNSAyMTQuMzkzQzI1LjUzMTUgMjE0Ljk4NiAyNS43NDgzIDIxNS41NTggMjYuMTQxNCAyMTYuMDAzWk0yMDkuOTMxIDE5NC4zMTlDMjEwLjAzOCAxOTQuMDQ3IDIxMC4wODcgMTkzLjc1NiAyMTAuMDc2IDE5My40NjVMMjA5Ljk5NyAxOTAuOTUyQzIwOS45OTcgMTY0LjE3MyAxOTMuMzgzIDE0NS44NzYgMTY4Ljg5NSAxNDUuODc2QzE2My4yNDUgMTQ1Ljc3OCAxNTcuNjMzIDE0Ni44MjQgMTUyLjM5OCAxNDguOTVDMTQ3LjE2NCAxNTEuMDc2IDE0Mi40MTcgMTU0LjIzOSAxMzguNDQzIDE1OC4yNDZDMTM0LjQ2OCAxNjIuMjU0IDEzMS4zNSAxNjcuMDI0IDEyOS4yNzYgMTcyLjI2N0MxMjcuMjAyIDE3Ny41MSAxMjYuMjE2IDE4My4xMTkgMTI2LjM3NiAxODguNzUzQzEyNi4xNDggMTk0LjUyNiAxMjcuMTMyIDIwMC4yODIgMTI5LjI2NCAyMDUuNjU0QzEzMS4zOTcgMjExLjAyNSAxMzQuNjMyIDIxNS44OTMgMTM4Ljc2MSAyMTkuOTQ1QzE0Mi44OSAyMjMuOTk3IDE0Ny44MjMgMjI3LjE0MyAxNTMuMjQzIDIyOS4xODJDMTU4LjY2MyAyMzEuMjIyIDE2NC40NSAyMzIuMTA5IDE3MC4yMzQgMjMxLjc4N0MxODEuODEyIDIzMi4wNzggMTkzLjE2MiAyMjguNTQ0IDIwMi41MTcgMjIxLjczNUMyMDIuOTQyIDIyMS4zOTUgMjAzLjIyNSAyMjAuOTEgMjAzLjMxMyAyMjAuMzczQzIwMy40IDIxOS44MzYgMjAzLjI4NSAyMTkuMjg3IDIwMi45ODkgMjE4LjgzTDE5NS45MDMgMjA4LjU0MkMxOTUuNzM5IDIwOC4yOSAxOTUuNTIzIDIwOC4wNzYgMTk1LjI3IDIwNy45MTNDMTk1LjAxNyAyMDcuNzUxIDE5NC43MzIgMjA3LjY0NCAxOTQuNDM1IDIwNy41OTlDMTk0LjEzNyAyMDcuNTU1IDE5My44MzMgMjA3LjU3NCAxOTMuNTQzIDIwNy42NTVDMTkzLjI1MyAyMDcuNzM2IDE5Mi45ODQgMjA3Ljg3OCAxOTIuNzUzIDIwOC4wNzFDMTg2Ljg0MSAyMTIuMjE5IDE3OS44MjMgMjE0LjUxNSAxNzIuNTk2IDIxNC42NjhDMTY3LjA4OSAyMTUuMTIxIDE2MS42MSAyMTMuNTAzIDE1Ny4yMzkgMjEwLjEzMkMxNTIuODY3IDIwNi43NiAxNDkuOTE5IDIwMS44NzkgMTQ4Ljk3NCAxOTYuNDQ5QzE0OC45NjMgMTk2LjM1NiAxNDguOTcxIDE5Ni4yNjIgMTQ4Ljk5NyAxOTYuMTcyQzE0OS4wMjMgMTk2LjA4MiAxNDkuMDY2IDE5NS45OTggMTQ5LjEyNSAxOTUuOTI1QzE0OS4xODMgMTk1Ljg1MiAxNDkuMjU2IDE5NS43OTEgMTQ5LjMzOCAxOTUuNzQ2QzE0OS40MjEgMTk1LjcwMSAxNDkuNTExIDE5NS42NzMgMTQ5LjYwNCAxOTUuNjY0SDIwNy44NzFDMjA4LjE2NCAxOTUuNjc1IDIwOC40NTUgMTk1LjYyNSAyMDguNzI4IDE5NS41MTlDMjA5IDE5NS40MTIgMjA5LjI0OCAxOTUuMjUgMjA5LjQ1NSAxOTUuMDQ0QzIwOS42NjIgMTk0LjgzOCAyMDkuODI0IDE5NC41OTEgMjA5LjkzMSAxOTQuMzE5WiIgY2xpcC1ydWxlPSJldmVub2RkIiBmaWxsLXJ1bGU9ImV2ZW5vZGQiLz4mI3hhOzwvZz4mI3hhOzxkZWZzPiYjeGE7PGNsaXBQYXRoIGlkPSJjbGlwMF80MDRfMjIwIj4mI3hhOzxyZWN0IGZpbGw9IndoaXRlIiByeD0iNjAiIGhlaWdodD0iMjU2IiB3aWR0aD0iMjU2Ii8+JiN4YTs8L2NsaXBQYXRoPiYjeGE7PC9kZWZzPiYjeGE7PC9zdmc+;" vertex="1" parent="s8ikmo4zl2_qSsBDsND9-16">
          <mxGeometry x="51" y="68" width="60" height="60" as="geometry" />
        </mxCell>
        <mxCell id="s8ikmo4zl2_qSsBDsND9-21" style="edgeStyle=orthogonalEdgeStyle;rounded=0;orthogonalLoop=1;jettySize=auto;html=1;entryX=0;entryY=0.5;entryDx=0;entryDy=0;strokeColor=default;dashed=1;strokeWidth=2;" edge="1" parent="s8ikmo4zl2_qSsBDsND9-16" source="s8ikmo4zl2_qSsBDsND9-13" target="s8ikmo4zl2_qSsBDsND9-11">
          <mxGeometry relative="1" as="geometry">
            <mxPoint x="220" y="136" as="targetPoint" />
          </mxGeometry>
        </mxCell>
        <mxCell id="s8ikmo4zl2_qSsBDsND9-13" value="" style="swimlane;startSize=0;" vertex="1" parent="s8ikmo4zl2_qSsBDsND9-16">
          <mxGeometry x="16" y="48" width="130" height="190" as="geometry" />
        </mxCell>
        <mxCell id="s8ikmo4zl2_qSsBDsND9-15" value="&lt;span style=&quot;color: rgb(71, 71, 71); font-family: &amp;quot;Apple SD Gothic Neo&amp;quot;, arial, sans-serif; text-align: left; text-wrap: wrap; background-color: rgb(255, 255, 255);&quot;&gt;&lt;b style=&quot;&quot;&gt;&lt;font style=&quot;font-size: 18px;&quot;&gt;crawling&lt;/font&gt;&lt;/b&gt;&lt;/span&gt;" style="text;html=1;align=center;verticalAlign=middle;resizable=0;points=[];autosize=1;strokeColor=none;fillColor=none;" vertex="1" parent="s8ikmo4zl2_qSsBDsND9-13">
          <mxGeometry x="15" y="-20" width="100" height="40" as="geometry" />
        </mxCell>
        <mxCell id="s8ikmo4zl2_qSsBDsND9-11" value="" style="shape=image;verticalLabelPosition=bottom;labelBackgroundColor=default;verticalAlign=top;aspect=fixed;imageAspect=0;image=data:image/jpeg,/9j/4AAQSkZJRgABAQAAAQABAAD/2wCEAAkGBxAODw0ODQ0QDg8NFQ8SDxASEBAXDg0NGRIWFhYWFxYZHCggGhonHxcWIT0hJSkrLi4vFx8zODMtOygtLisBCgoKDg0OGxAQGy0lHSUtLS0tLS0tLS0tLS0tLS0tLS0tLS0tKy0tLS0tKy0tLS0rKy0tLS0tLS0tLS0tLS0tLf/AABEIAOEA4QMBEQACEQEDEQH/xAAbAAEAAwADAQAAAAAAAAAAAAABAgYHAAQFA//EAEEQAAEDAgIHBAUJCQADAQAAAAEAAgMEEQUhBhIxQVFhcQcTIoEUMkKCkSNSU2KSk6HB0hUWFzNDVKOx0aKywiT/xAAbAQEBAAMBAQEAAAAAAAAAAAAAAQIFBgQDB//EADQRAQABAgIEDgIDAQEBAQAAAAABAgMEEQUhMUESEzJRYXGBkaGxwdHh8BQiFVLxUyNDQv/aAAwDAQACEQMRAD8A8gLJ+glBIIFAoFAoFAoFBIIFAoFFIQKBUCgkgUCgQgUCEEkCoFAoOIK+FkhCBQSCBQKBQKBQKBQSCBQKBRSECgVAhBJAoFAhAoEIJBAqBQcQV9ZIQgUCgkECgUCgUCgUCgkECgUCilAoEKBCCSBQKBCBQIQSCBUHEFfWbEqKQgUCgkECgUCgUCgUCgkECgUCilAoEKBQSQKBQIQIQKCQQcQV9ZMSgVFKBQKCQQKC3aK6Evq2tnqHOhgdmwADvZm8RfJreZBvw2FJlqMdpWmxPAtxnVv5o95XBuiWFxWa+JlzvkmfrH4u/wBLHNqJ0ljK9cT3RHs6GLdnsD2l1G90L9zXOc+J3mbuHW56K5vRY01dpnK9Gcd0+33azutpJIJHwzMLJIzZzT+BB3jmq6K1dpuUxXROcS+KPoUEggUCgUUoFAqBQSQKBQIQIQIQKCvrJiUCgVFIQKBQezolhgrKyCF4vHcvlHGNuZHQmzfNHjx2ImxYqrjbsjrn22r/AKf6Ruo446enOrNMCS4WvDCMrjmTkOFjyUiGh0Vgqb9U3LnJjxllbzrEucS5zs3OcSXOPEk5kquqjVGUbFg0T0lkoZWNc8mlcQJIybtY0+23gRty2/Ahk1+OwNGIomYj9908/RP3UtvabhjXwMq2ga8Bax5+dC42HwcR9oqQ1OhcRNNybM7J19sfHozVV0xQfaKnkeLsje8DIlrHEA+QRjVXTTypiO19PQpvoJfun/8AFGPHW/7R3wfQpvoJfu3/APEOOt/2jvg+hTfQS/dv/wCIcdb/ALR3w4aSUAkwygDMkxvAA62RYu251RVHfD5BV9CgVAoFBJAoFAoFBXwsmJQKBQKikIFBbOzKUNxAA7ZIpWt5uux3+mlJ2NVpmmZw2rdMT5x6u12p07m1kMp9SSENafrMe4uH/m34pD56EribFVO+Jz74j2U1G5LWFxDWguc6zWtG1zjkAOd1TOI1zsa7pse6wqVjzc2gYPrP12f8J8ljDkdG/vjImOmfCWSKuuKC46FaTwUMMsc7ZS6STXGo1pGrqNG8jPIqS0+ksBdxNymqjLVGWvrlYv4hUfzKj7DP1Jk1v8LiOenvn2c/iDR/MqPsM/UpkfwuI56e+fY/xAo/mT/YZ+pMj+FxHPT3/Dv4LpVTVshhi7xr9UuAe0AOA22sTnnsR58To69h6OHVll0KHppg3olSSwWhnu+Pg11/EzyJv0I4Kuh0Zi+Ps5VcqnVPpP3e8BVsigVAoFBJAhAoOIK+FkxSCBQKBQKikIOzQVj6eWKeI2fC4ObwNtoPIi46FHzu26blE0VbJa7/APkxyj2ncTYjvqWe3+8zyIKmxyf/AL6Pv/cqo+90qdU9nNY1xEUsEjNzi57HebdU28iVc4bijTdiY/aJieyfWFk0V0IbSPbPUSCaZvqNaD3UTuOebjzytw3qTLXY7StV+ni7cZU7+efZW+0LSEVUopoTeKmc7XP0k4u0+Tcx1J5Kw2WicFNmjjKuVV4R8qijblAhAoFBJB96KrfBJHNEbPicHNO6/A8jmOhRhct03KJoq2S1XEII8XoA6Owc8a8RNrxzi4LSet2nqVi5KzXXgMVlVu1T0xz+sMzp8IqZL93SzOsSDaN1g4GxF7WvdV1NeKs0cquO9Crw+eD+dBLEOLmODSetrIyt37VzkVRPVLrqvsVAoJIEIFBxBXwsmJCCQQKBQKBRSFB2aCulp3iSnlfE8e007RwI2EcjcI+dy1Rdp4NcZws0PaJXtFiKd/1nRP1j9l4H4JlDW1aGw0z/APqO2PWJezohptNPVdzWOZqzgCLVbqtZKL+Hj4uZ2gDepMPJj9F27dnh2s9W3q+HS7SsD7qUVkTfk5zqzAbGTWydyDgPiOasPtofF8OjiatsbOr48upSkbsoFAoFAoJINQ7OqCWGldJK6zKgiSKP5jbevf6wtlwA4qS5XTF6i5eimmNdOqZ9Ow4np5TQuLImvqC3a5mqIr8nHb1AtzTIsaGvXKeFVMU9e3ufTCdMqWrd3MjTC6TwhsgaY5CctW+zyNrqZMcRoq/Yjh0znEc22PvQ8DTbRdtOPSqZurFcCWMbIiTYOb9W+Vt1xu2VsdF6Rm7PFXZ/bdPP0T0qcq3hUCgkgUHEFfCyYkIJIEIFAoFAopUCgk1xBBBIIsQQbEEbCDxRNu1sOBVseMYe5k9i4juqgDa2QZh44bnDgeimxyOJtVYHE8KjZtjq5vSWU4lQvpZpaeUeOIlpO5w2hw5EWPmq6qzepvW4uU7J+5djro+pQIQKBQdnD4BLNBEdkskUZ6OeG/mj53a+BbqrjdEz3Rm03tCrTBRCOPw9+5sRtlqxapJA6htuhKkOY0Rai7iOFVujPt+zmy1V1ZRWtaNTGuw1rZ/EXtkhkJ2usS2552seqxcdjaPxsXM0bpiY82Tjnt39Vk7EoFQKBQKCvhZMSECECgkECguvZ7oqytE09UwugAMcbbka8ntOBGfh2dSeCky0+lMfVYmmi3P7bZ6ubt+7Ve0joYqaqmgp5XSsiOrrOAuH+024yNjlewzvlkq2GEu13bNNdcZTP3Ptecj0kKBQXvspppTPUTNOrA1oZIN0kt7tHVoufe5pLR6buUcXTRPKzzjojf3+i5YrS4bLKTV+iulaA0949geG7QDnff8AisWnsXMXRRla4WXRE5On+y8G+bRfeR/qTN9vyMfz1d0n9mYN82i+8j/Uh+Rj+erukswnCHENayjJcQABIwkk7ABdEnE4+Izmau6VW0/0aZS6lTTM1IXnUkYL6scnskcAdnUDirDbaKx9V7O3cnOrbE88fH3YpqrcvtSTmKSKUC5iex4HEtcHfkjCujh0TTzxMd7VtLqD9oULX0/jc3Unht/UbqnIdWuPnZRymj734uJyuao10z0fZhk/5beIKrrk4o3Pc1jGlznkBrQLuc47AAiVVRTGc6ohrVDGMLw35QjWhY5788jM4k6oO/xENHksXIXavzcZ+uyZy7I392tkjVk7FJAoEKBQKCvLJikECgUEkHbwqgfVTxU8Q8czg0G2TBtc48gLnyR8712mzbm5Vsj7l2tc0hr48Hw5scGTw0Q04OZMls3njbNx4nqsY1uVwtqrG4nhV7Ns9XN6MbvvJJJzJJuSeJKydcUCivrSwPleyKJutJI4NY3i4mw6DmoxrrpopmqrZDYpXRYJhthZxiFm32z1TvyJueQHJTbLkaYrx+K17/CI+9ssemldI98kjtZ8hLnuO1zibkquvppimIpp2QiEUoJDlkdxG0FBr2j1czFqB0c+b7GKoG/Xtk8cL5OvuN+CmxyGLs1YLExVRs2x7enUy3E6B9LNLBL60Rtfc5u0OHIix81XVWL1N63FynZP3J1gj6rdobpd6IPR6m7qe5LHAXdATtFt7d/Ec90yajSOjePnjLfK8/lcpsKw3EflQ2KVx2vjkLXk/W1CCT1UaanE4zCfpriOaYz7s/R28JwWjpXEU8TGyWNyXF0obvzcSQPwR8cRi8Rfj/0mcu6PDUpPaNiU7pxSvb3cLA17LH+eSPWPQ3FuRPC1hvdDWLUWuNjXVOqejo9c1QVbkopQKBUCgrwWTEoJBAoFBqnZbgXdQurpRZ9QLQ39invfW94i/QN4qS5rTGK4dfE07I29fx55qZprj3p9W57DeCG8cHAtv4n+8RfoGqxGTb6Pwv49mInlTrn27PPN4SPcUCg0TstwK5dXyt2a0dPf4PePxb9pSWg01i9linrn0j17nj9oWO+l1RhjdeCkLmttsfNse7y9UdDxSHs0VhOJtcOrlVeW6PXu5lWCNoUEggUHuaH436DVNe4/Iy2ZNwDL5P8AdOfTW4o8OkML+RZmI5Ua49u3zyXLtJwXvYm1sQu+AWkt7dPtv7pN+hcpDT6HxXAr4mrZOzr+fPJmirpig4Wg7QCi5y9HAMTNFURzsGTcpGj24j6zfz6gI8+LsRiLU257Oid33maPplhba+jbPBZ74m97CR/UiIBc0dRY9QFHNaOxE4W/NuvVE6p6J5/u5lYKrrEkCilAoFQV5ZsSFAhBIIPZ0SwQ4hVxwZ92PHO4boQRcX4nJvnfcmeTyY3Exh7M179kdfxtaJ2k44KSlbRwENkqW6tm5d1SjJ1rbL+qPe4LGIaLROG467xteynxn7r/ANZKFk6hIIFB38Dwt9bURU0eRkPid9HGM3O8h+NhvR8cRfpsW5uVbvGd0NT0wxRmF0LIKbwSPb3NOBtjYBZz/Ib+JCxjW5nAWKsXiJrua4jXPT0dvkyALJ1pCgQgUEggUGpdneMipp3Uk1nSU41QDn3lMch1t6vTV4qS5bS2Fm1d42jZV4T87e9RdKMGNDVPhF+7PjhJ3xHYL8RmPK+9VvsFioxFmK9+yev52vKR6ygUGhdmuN3DqGQ5tu+Ane3a9nlt8zwUlzumsJlMX6eqfSfTu53h6c4L6JUl7BaGpu9nBj/bb8TfobbkbDReK4+zlVyqdU+kq6q2RQIQKKboK8FkxIQIQIUFi0Gx0UFYx7zaGb5KY/NaTk/3T+BKTGbw6Rwv5FmYjlRrj27fPJdO1TAe9ibXxC74AGzW9qnvk73Sfg48FIanQ2K4Nc2atk7Ov582WhV0hQSCD1dGMYNDVRVFrtF2yje6F1ta3MZHq0I82Mw/5Fmbe/d17vZo/aHgwraRtVBZ8lO3vGFufe0xALgLbcrOHQjesYc/orEzYvTar1ROrqnd7T8MmBWTqioEIEIFBIINL7MsE7uN1dIPFMC2G/sw3zd7xHwaOKkua0ziuFVFinZG3r+PNVNM8aFbVOcw3hh+ThI2PaDm/wAz+ACrbaOwv49mInlTrn27PN4SPeQgUF67NcF13urZB4Y7sg5yWs53kDbqTwUlotM4vg08RTtnXPVuj17nT7QsZFRUCCM3jpbgn50x9b4Wt11kh99EYXirXGVbavLd37e5VVW2KBQIQKKryyYkIEIFAqDYOzfHBW0jqSez5KZuoQ7PvqYizSb7bZtPQHesZhy2lcNNi9F2jZOvqn7r/wAZzpXgpw+qlgP8v14XH2oScs+Izael96yjW3+CxMYm1Fe/ZPX87Xlbtax1fnez8UerflvcBQSCDT+y3Hu8jdQSu8cILoL+1BfNvuk/Bw4KS5vTOF4NXHU7J29fP2+fWqenGBeg1bgxtoJ7yQW2NF/Ez3SR5OarGttdHYr8iznPKjVPpPb55q+j3lRSECg9bRnB3V1THALhnrTOHswgjWz4nIDmeSPLjMTGHtTXv3df3W0LtAxgUdK2lgsySobqNDcu6pwLOI4ZWaOp4KQ5/RWGm/e42vXEa+ufuufllYVdUUCg7eFUD6qaKni9aU2vuY3a5x5AXPkj5X71Nm3NyrZH3JqekNezCqBscHhfYRU4361s3njbN195txUcrhLNWNxM1V7Ns+3p1Mlv5nidpVde4gkECgUHEVX1kxKBQIQIQe7oVPOzEKU0rdeRztVzdjXQH+ZrHcAM78WjbsUl48fTbqw9XGbPXc2jFzSRhtTWCFohuGSShpLC61w2+dzYZDPJYOSscdVnbtZ690erxG9omGl2r3sgGzWMEup/q/4K5S9k6IxWWeUd8PnjWiVFicXpFGY45Hglk0Vu6lPB4bkeF9o/BM8mWH0hfwtfAu5zG+J2x1fcmS1lM+CSSGZpZJES17Tud+Y333ghZOpt1010xXTOcS+mG1z6aaKoiNpIXBzeB3Fp5EEjoUY3bVN2iaKtk/fBr+N0ceNYc18Fi5wEtOTa7JhcFhO72mHh5LHZLlcPcrwOJyr2bJ6uf1hjZBBIIIIJBBFi1wyII4rJ12eeuHECopuqNd0KwluHUT6iotHJK3vZy7+lEAS1p6C5PNxWMuT0jiJxV+LdvXEao6Z5+3yZpj2KuramWofca5sxp/pxD1W/n1JVdJhcPFi1FuN23pnf95nRR6CgUGm9m2C9zC6tlFnzi0d/Yp9t/eIv0DVJczpjFcOviadkbev4881P0uxr06qc9p+RiuyEbiy+bveOfS3BVuNH4X8ezFM8qdc+3Z7vFR7igUEggUHEFfWTEopQIQKDTOx2gaRV1RF3AthYfmiwe/43Z9lY1Of05dn9Le7b6R6qzp/jL6uumaXHuqVz4ombgWnVe7qXA58AFYbHRuHps2InfVGc+ngroR71w7MsYfBWsp7nuau7XN3NmDSWvHPLV53HAJOxq9LYem5Ym5vp8ub1/wBeh2uUIZPS1DRYzsex/NzC3VPWzyPdCkPhoS7M26rc7piY7f8APFQ1W7Xjsz0jbTyPpKiQMhmOtE5xs2OfeLnYHD8R9ZSYabS+Dm7TF2iNcbemPjy6l0q8BwqaR8skcDnyEue7vSNZ282DrLHNqKMXjKKYppmco6Ph8v3Zwj6KD75360zZfnY3nnu+HP3Zwj6KD75360zPzsbzz3fCcWjuEtc1zYoLtIcPliRcG4yLrFM0nG42YymZ7vh9dNaKSroJW0zySNWTVbYidrTcsvz25bSArDHR12mziYm5HR1Z72LgrJ2RUEkCg95mltX6LJRueHse0MDyPlWR72628EZZ557UyeCdHWOOi9EZTGvLdM87wwj3lAoFAoJIOIK+FkxKBRSgQg1HsbrG93WU9/EHsmA4tc0MPwLB9oLGpzunLc8Kivdll6+qn6cYW+lr6lrgdWd75onbnse4uNuhJHlzVhtdH34u4emY2xGU9nu8EI9q19m2GPqMQikAPd0t5JHbgdUhjepJv0aUnY1ulb9NvDzTvq1R6va7X60GWjpwc42ySPHDWLWt/wDVykPJoO3MUV1zvyju2+cM+Vb0oOao4D4KrnJDRwHwUM5S1RwHwQzk6o4D4IZy0bstx71sPlOzWfTk8Nr2f/Q97gpLntM4T/709U+k+nc8btBwL0SpMsbbQVRc5ttjJtr28vnDqRuSHt0Vi+OtcGrlU+Mbp9J+VWCNoUEggUCgUCgUCgUCgrwWTFJAoFFKD0cBxeShqI6mH1mXDmn1ZYz6zTyP4EA7lHwxGHpv25t1f5PO2GGow7HqcNcGvLczGTq1NO7iLG46jI81jrhy1VGJwFzONXTun73w8pvZbSB1zU1Jb83WiueV9RXhPVOnL2XJpz7fd7eIT0uB0RdFTkRtIDWMBJkmdkC956es7kM8gpteO1Tdx1/KqrX07o6I9IYtiWISVU0tRO7WklN3W2DcGgbgAAPJZOutWqbVEUUbIdcI+hCBQSCBQKD60tQ+J7JYnaskTg5juDgbjqOSMa6Ka6Zpq2S2NwixvDcrNMguONPVN/IH4tPNY7JclE14DFdXjE/eyWbQ6IYi++rRPyJB1nRNFwbZa7hccxtV1Ojq0jhadtceM+US6uI4FV0o1qilkjbvdYOYOrmkgfFH1s4uxenK3VEz4905S88I9CQQKBQKBQKBQKCvBZMSEEkCgUUoJMeWkOaS1zdjgSHNPIjYiTGcZS75xysI1TXVVuHpM36lHy/Gs558Cnuj2a9oziMeM4c6Oo8T9Uw1I369snjhfJwO434LGdUuXxdmrBYnhUbNse3oyDFsOkpJ5qaX14XFpNsnt2tcORFj5rJ1Nm9Tetxcp2T9y7HVCPqQgQgUEggUDdBsWhWD/syjfLUyajpQJZg42jpwG7OoG08uQWM63JaQxP5V+KbcZxGqOefu55GI9prGuIpaUysHtyP1Nbo0NJt1seSZPXa0HVMZ3K8p5ojPxzh6Gj2nsFY8QTxejSSeFt3B0MhOWrrWFieBFt10yfDFaJuWY4dE8KI7JjsV/tB0WZTWq6VurC4hssY9WJ52ObwaTlbcSLbcrDYaKx9V3/yuT+26ef5UlG6SCBQKBQIQKBQV4LJiQgQgkgUCilAhBYdB8f8A2fVse42gmtHONwZfwv8AdOfQu4qTDw6Qwv5FmYjlRrj27fPJp2luhsWJvim74wSMaWlzWB3ex7Wg5jYb5/WKxicnPYLSNeFiacs4nweD/Clv9+77gfrThPd/Oz/Tx+HP4VN/v3fcD9aZn87P9PH4P8K2/wB+77gfrTM/nZ/p4/DydKNBG0FLJUiqMuoYxqGINvrPDduseKsTm9OD0pOIuxb4OWee/mjNS1W4SCD1tE6cTV9FG7NplaSOOrd9unhsk7Hmxtc0YeuqObz1eq99rVc5kFNTtJDZ3Pc/6wj1bNPK7gfdCxhpNB2om5VcndGrt/zxZisnSFFbJTSGuwa8pu6WneHOO+VrSNbrrNusd7kK4jD479dkVR3Tu7mOgquvKCQQKBQKBQKCvLJiQgUCEEkCgUUoFB7FNpRXxMbHHWzNYwANbdp1WjYBcE2Uyh5a8Fh65mqqiM32/fDEv7+b/H+lMoY/x+F/5x4+7n734j/fzf4/0plB/H4X/nHj7n978R/v5v8AH+lMoP4/C/8AOPH3fGu0hrKiMxVFVJLG6xLHatiQQRsHEBMn0t4Sxbq4VFMRPa80I9BQd3Bq70app6jdDIxzgNpYD4gOerdHyv2uNtVUc8f54tX09wY4hRxy01pJIflYgLfLROb4g08xYjjqgb1jDmNGYmMNemm5qidU9E/dTH9lwQQRcEEWII2gjcVk6x2sNoZaqVkFOzXkfsG5o3ucdzRxR87t2i1RNdc5RH3KOlrWkEjMMwl0LXZiIU8R2OfK5uqXW4+s7yKx2y5bCxVi8Zw5jfwp6o+5MeCrrigUEggUCgUCgryyYlAhAoEIJIFAopQIQKBCBCgkECECEEkFy0L03NE0U9S10lOPUc3OSC+0WPrM322jO18gJMZtTpDRkX54y3qq380/Pmusk2DV57x7qOV5AuXljJrfWBs74qa4aeKcfh44MRVEdGcx7CTSDCsNjc2B0F/oqYMc97vrFuV+biEymVjB43FVZ1xPXVn6+jNdJtIZcRl7yTwRsuIogbiNp2kne48eSrosHg6MNRwadcztn7ueQj2FAoFBIIFAoOIK+s2JUCgUCgQgkgUCilAhAoEIEKCQQKBCBQKCQQKBQKilAoFBJAoOIK8s2KSBUCgUCgUEkCgUUoEIFAhQKCQQKBCBCCQQKBQKBRSoFAoJIOIK8s2JQSQKgUCgUCEEkCilAoEIFAhQIQSCBQIQKCQQKBQKBUUhAhAoFBXgs2JQIQKCSgUCECgUEkCgUUoEIEIEIEKCSBCBCCSBQKBQKBRSoFAoK8FmwSRSgQgQoFAoEIJIEIEIFFKBQIQKCSBCgUEggQgUCECgUCgQoqQQcRH/2Q==;" vertex="1" parent="s8ikmo4zl2_qSsBDsND9-16">
          <mxGeometry x="220" y="123" width="40" height="40" as="geometry" />
        </mxCell>
        <mxCell id="s8ikmo4zl2_qSsBDsND9-42" value="&lt;b&gt;Trigger&lt;/b&gt;" style="text;html=1;align=center;verticalAlign=middle;resizable=0;points=[];autosize=1;strokeColor=none;fillColor=none;" vertex="1" parent="s8ikmo4zl2_qSsBDsND9-16">
          <mxGeometry x="210" y="158" width="60" height="30" as="geometry" />
        </mxCell>
        <mxCell id="s8ikmo4zl2_qSsBDsND9-9" value="" style="shape=image;verticalLabelPosition=bottom;labelBackgroundColor=default;verticalAlign=top;aspect=fixed;imageAspect=0;image=data:image/png,iVBORw0KGgoAAAANSUhEUgAAASwAAACoCAMAAABt9SM9AAAAkFBMVEX////0fCD0eBHzcQD+9e33qnrzdAD0exz0eRbzdQD83sn++/f2n2D0eBP72MD//vz0hzL96Nr0gCX4tIj2oGX+8ur1jkP0gy385NP1kUn6xqP6zK74upL60LX0fhz6xKP3p3T2l1b5v5r1ijv3l137zLP959j2kUn3pG/5uI/2llL5r4P6yKn4vpb71br72sSso2P9AAAIXklEQVR4nO2da3uiPBCGa9QcoIooiFbFUw+utdv//+9eXPtWSTgFIiSD98duy8JzZSaTmUny9PTAXOyea1kz3276PfTHP20C1sUR4faP9RAsHWf4itiAdP5BKGL7r17T76Qr31tGOzEIC3aP0ZWA/8pLdZFr9Nb0m2mHM0mS6iLX8b3pt9OLVchIslYRFG8eruuX2RynS3UGsRen6ZfUA3+TZoG3trgfNv2eGmDvQpQn1T9bZF7rXddqn+Gs4gzQp9/06zbJbFtYqrMtovG6ta7L7uc7K04utv9u+q2bYYcLOStOru62hbY43GN5qc4M0KRlUZfryTgrbnDhYNEi1+VPUAkLvJGLfVhNf0NNOKcAlR5WP1B0aIXrsqblLfAGFP4Bn7zxPdlwIY0o6lo0/TV3xV6ySs6KkwtPZ01/0f1YhDnZBVlodwPUdc2OiqU6g8IlQNflS69tikHY9G/T36YYe9dR6KziUGB5Z4lETBkGCE7e2T3eVarOOYwIX5r+SiX0Nt27OCtOLjw2P+9svxTLGquQa+s2/bXV+J7eIVxIY8BMzju7ytY2BUGBqXnn3qQuC7xC2NHIvPMpuPccmAhlnnGuS1EipgwD9GmULfY8XK+zihFFXaumFSiOVS1rrEAu/GxKSH9qzAKvoKkZ68UXDbSKPFdggp9/00KraFoM9E90zTp6aBVZ4rZpLfJwjpLTIMIiTI1aWPdMxFqyKI++LJG1msmUDPReKtpjSSPESasTe6/GlFG/dgFkWMtaEE7MQi0VDa2x1kNLekgki+WGaoYWO9UtgAQz6TaiZLGevIESsehzzQLIsJOex1LE+lYzIWpth3Pp5XOKWM5IkR1qXN+XHw8pYj19qRlaGodaTleZWLb8o5JAk3oVkKCnTixFLl7jSEulWGpcfEvEcpRE8bDEYn8d+3/iD5NeDMAXiwSjX+LZOp8qGFqwxOqQX/Au/rS+ggUiMLGu0Hm8gmUpsEOwYpEwHm478uuB9ojVQcv4416qDy24YvF26AeVXTxcsTqMq/VVd/GAxUJ/4s+bVbZDwGKRaTwwlS4VtUmsDuN2xp2q2iFksfiMSk+2WNQmsciIWyBWdfGQxeowroxY1cXDFoubD0tk9VsjFgn5asyi5B79FojFhA1eTrVEDWCx0EF85qSSi4crVmJJ9L2Si4crVnJnwmsVFw9WrMFzYvv6qsrQgioWCZM7ZntVKvlQxWK7lKdWcfFAxaIfaU91H2LxsPS29QqVfJhipRphxKr80AIpFv3I2MhVoR8Xolgku+lsWTp6gCiWkGyI45KyQwugWHSfs+HtuWwUD1Cs3M7PYVk7hCcW+uQfZPE7UcuWW8GJJRqhPZ9zPynbjwtOLCQ0/y0Zb5j+Q6zL92z4x8wIESyzZBQPTCwS8htO7Y9o7mPcD62S7hCWWFg4VWByNjnMnRRZsh8Xllhi2v2yWYryLl5+WxA4scS0u/2T6xNcfKkyDyixmHAua/9nBAkuflMm9wBJLOTxj/jdWEGCXsq/tFQsMuYzfjcJd8TVeuwylXxAYom1r5uuGcofy1CmHxeOWIMjn/H7e+uXEDfs/BIbp8GIRShvhPH2ZOFDSzRrgRGLffF/H5/wyIgLK6z2isV3vYu1ZyGukHfxUMQSal/CHgHBxZ+kXTwQsbCwe9kTrAzxUbx0Py4MseieN8KEHj9hO/jVxVNW6LRYGGLxHe9PfsKNKUL65v2foIRiNl+7RXYUgBBLNMJtUnaPT9Q8TSlBLPQW53mySDURglh0z2f8ksNzIVGz6O77w5+/nRWIJACIRRB/albasUZ8osaeXVUuUtUHIJbwCfZzSopdrJLdUCCiN18sMuJrX6lpUEIzjoQskLQxXyyh2/09fYksZgevFDgzz3ixhIyfc0yvc9Fjxv+XXx8zXSwS8ka4zNpyktUHkd/IbLpYQu1rlnmBX5aLzy9iaCxWkUOvEH8Mn7PPjMRJkHESXW4QnzmbNky+WOK+r0nOvi8+F3/LW96eMY0PGytwjJ2Qds/dfikkan7pWYc8D481Pnsz1yyELSd2thGe4RM1F/yFF7Dc2VDnAxLzTlYWC9CfBaJw0e+4uw/KBvmrnUyH1zTveWKNvOc4BdIsXLnVtiYjzIoV86lQxNWJac43EMpR5JNvEjX+4hB2i98VLLbo6ISSs+d4fly87a69Qsb3i9ACoBeVT61IJHLTkfHNKZbspOHPttGN+wwtrz9iSLoORnS/xULFcWoJaskY3y96e6wzbuWr2lWBtZ4KLww1uUoG8fl7LVlooRaaahyP3rCS98XKYUcztIoC+ebu67tAWF/zifAGe1n/pZk3sJFZl5b7h8ZuOET4y5xh9YNV50W/Vyg+mOKtYpzC2mMuwqYaZ7AysT/rvUKTsEDjzGgutd4kjehS6yxDPsO6wgjKDibclZmNfaI12CLBc749zkx6/bvbIhsvjLo7Ogt32r2nLQ66E+MiqyyG+7u5LsqejYysMrCX47u4LsI+0q7uMRn/oN51nSMrMM4qjrVVbItRZAXNAq84i5HCggbBnvmRVRb2Mr9BoahUIxiRVRa+pyKMIAitm/6SWrCqhxED1Dd8GVicxbiSXFFkBdtZxelNaGnXRdgUYmSVxaxs8gaN16DWNsUYlsk7D9gEbmSVhb2WrQER/NomZxWnt+lK2CLBYducVRx3W9QWCQr1vUG7LlajQmHEgPTb6azi2DuS67oI25pa4lKNv8kOIwjbt9tZxbGOGbaIxubV4+/LIkxJ3lC8eTgrHvszKXlD8PzhrJLwPcY1R1AWmNU8VCezDcHo0uxOCMVo/tb0G2mNv+ofA4oQ7Xx46/f83287ju9G+I8J8MGDB0n8B6iUlQ2qJTu8AAAAAElFTkSuQmCC;" vertex="1" parent="1">
          <mxGeometry x="877" y="99.4" width="120" height="67.2" as="geometry" />
        </mxCell>
        <mxCell id="s8ikmo4zl2_qSsBDsND9-17" value="&lt;span style=&quot;color: rgb(71, 71, 71); font-family: &amp;quot;Apple SD Gothic Neo&amp;quot;, arial, sans-serif; text-align: left; text-wrap: wrap; background-color: rgb(255, 255, 255);&quot;&gt;&lt;b style=&quot;&quot;&gt;&lt;font style=&quot;font-size: 19px;&quot;&gt;Crawling Server&lt;/font&gt;&lt;/b&gt;&lt;/span&gt;" style="text;html=1;align=center;verticalAlign=middle;resizable=0;points=[];autosize=1;strokeColor=none;fillColor=none;" vertex="1" parent="1">
          <mxGeometry x="927" y="118" width="170" height="40" as="geometry" />
        </mxCell>
        <mxCell id="s8ikmo4zl2_qSsBDsND9-28" style="edgeStyle=orthogonalEdgeStyle;rounded=0;orthogonalLoop=1;jettySize=auto;html=1;entryX=0.5;entryY=1;entryDx=0;entryDy=0;" edge="1" parent="1" source="s8ikmo4zl2_qSsBDsND9-23" target="s8ikmo4zl2_qSsBDsND9-25">
          <mxGeometry relative="1" as="geometry" />
        </mxCell>
        <mxCell id="s8ikmo4zl2_qSsBDsND9-23" value="" style="swimlane;startSize=0;" vertex="1" parent="1">
          <mxGeometry x="530" y="510" width="200" height="200" as="geometry" />
        </mxCell>
        <mxCell id="s8ikmo4zl2_qSsBDsND9-7" value="" style="shape=image;verticalLabelPosition=bottom;labelBackgroundColor=default;verticalAlign=top;aspect=fixed;imageAspect=0;image=data:image/svg+xml,PHN2ZyB4bWxucz0iaHR0cDovL3d3dy53My5vcmcvMjAwMC9zdmciIHZpZXdCb3g9IjAgMCAyNTYgMjU2IiBmaWxsPSJub25lIiBoZWlnaHQ9IjI1NiIgd2lkdGg9IjI1NiI+PHJlY3Qgcng9IjYwIiBmaWxsPSIjMDIzNDMwIiBoZWlnaHQ9IjI1NiIgd2lkdGg9IjI1NiIvPjxwYXRoIGQ9Ik0xNzEuMTczIDEwNy41OTFDMTYwLjYzNiA2MS4xMDk3IDEzOC42NzYgNDguNzM1NyAxMzMuMDc0IDM5Ljk4ODZDMTMwLjc2NCAzNi4xMzUzIDEyOC43MTcgMzIuMTI5OSAxMjYuOTQ5IDI4QzEyNi42NTMgMzIuMTI5MiAxMjYuMTA5IDM0LjczMDcgMTIyLjU5OSAzNy44NjJDMTE1LjU1MiA0NC4xNDU0IDg1LjYyMTcgNjguNTM1NCA4My4xMDI4IDEyMS4zNDhDODAuNzU2IDE3MC41OSAxMTkuMzAzIDIwMC45NTMgMTI0LjM5NSAyMDQuMDkyQzEyOC4zMTEgMjA2LjAxOSAxMzMuMDggMjA0LjEzMyAxMzUuNDA3IDIwMi4zNjRDMTUzLjk4OCAxODkuNjEyIDE3OS4zNzYgMTU1LjYxNCAxNzEuMTkzIDEwNy41OTEiIGZpbGw9IiMxMEFBNTAiLz48cGF0aCBkPSJNMTI4LjU0NSAxNzcuODcxQzEyNy41NzUgMTkwLjA1OSAxMjYuODggMTk3LjE0MSAxMjQuNDE2IDIwNC4xMDZDMTI0LjQxNiAyMDQuMTA2IDEyNi4wMzMgMjE1LjcwOSAxMjcuMTY5IDIyOEgxMzEuMTg4QzEzMi4xNDcgMjE5LjM0NSAxMzMuNjEgMjEwLjc1MyAxMzUuNTcyIDIwMi4yNjhDMTMwLjM2OSAxOTkuNzA4IDEyOC43NDUgMTg4LjU2NiAxMjguNTQ1IDE3Ny44NzFaIiBmaWxsPSIjQjhDNEMyIi8+PHBhdGggZD0iTTEzNS41NjUgMjAyLjI3NUMxMzAuMzA3IDE5OS44NDYgMTI4Ljc4NiAxODguNDY5IDEyOC41NTIgMTc3Ljg3MUMxMjkuODUyIDE2MC4zODggMTMwLjIzMSAxNDIuODQ5IDEyOS42ODggMTI1LjMyNkMxMjkuNDEyIDExNi4xMzIgMTI5LjgxOCA0MC4xNjc2IDEyNy40MjMgMjkuMDQ2MUMxMjkuMDYyIDMyLjgxMjkgMTMwLjk0OSAzNi40NjYyIDEzMy4wNzQgMzkuOTgxOEMxMzguNjc2IDQ4LjczNTggMTYwLjY0MyA2MS4xMDk3IDE3MS4xNzMgMTA3LjU5MUMxNzkuMzc2IDE1NS41MzIgMTU0LjEyNiAxODkuNDQgMTM1LjU2NSAyMDIuMjc1WiIgZmlsbD0iIzEyOTI0RiIvPjwvc3ZnPg==;" vertex="1" parent="s8ikmo4zl2_qSsBDsND9-23">
          <mxGeometry x="60" y="60" width="80" height="80" as="geometry" />
        </mxCell>
        <mxCell id="s8ikmo4zl2_qSsBDsND9-38" value="&lt;b&gt;&lt;font style=&quot;font-size: 14px;&quot;&gt;Mongo DB Cloud&lt;/font&gt;&lt;/b&gt;" style="text;html=1;align=center;verticalAlign=middle;resizable=0;points=[];autosize=1;strokeColor=none;fillColor=none;" vertex="1" parent="s8ikmo4zl2_qSsBDsND9-23">
          <mxGeometry x="30" y="30" width="140" height="30" as="geometry" />
        </mxCell>
        <mxCell id="s8ikmo4zl2_qSsBDsND9-8" value="" style="shape=image;verticalLabelPosition=bottom;labelBackgroundColor=default;verticalAlign=top;aspect=fixed;imageAspect=0;image=data:image/svg+xml,PHN2ZyB4bWxucz0iaHR0cDovL3d3dy53My5vcmcvMjAwMC9zdmciIHZpZXdCb3g9IjAgMCAyNTYgMjU2IiBmaWxsPSJub25lIiBoZWlnaHQ9IjI1NiIgd2lkdGg9IjI1NiI+PHJlY3Qgcng9IjYwIiBmaWxsPSIjRjRGMkVEIiBoZWlnaHQ9IjI1NiIgd2lkdGg9IjI1NiIvPjxwYXRoIGQ9Ik04NC43NDQ3IDExMS45NjFDODQuNzQ0NyAxMTQuMzk1IDg1LjAwNzkgMTE2LjM2OCA4NS40Njg0IDExNy44MTZDODUuOTk0NyAxMTkuMjYzIDg2LjY1MjYgMTIwLjg0MiA4Ny41NzM3IDEyMi41NTNDODcuOTAyNiAxMjMuMDc5IDg4LjAzNDIgMTIzLjYwNSA4OC4wMzQyIDEyNC4wNjZDODguMDM0MiAxMjQuNzI0IDg3LjYzOTUgMTI1LjM4MiA4Ni43ODQyIDEyNi4wMzlMODIuNjM5NSAxMjguODAzQzgyLjA0NzQgMTI5LjE5NyA4MS40NTUzIDEyOS4zOTUgODAuOTI5IDEyOS4zOTVDODAuMjcxMSAxMjkuMzk1IDc5LjYxMzIgMTI5LjA2NiA3OC45NTUzIDEyOC40NzRDNzguMDM0MiAxMjcuNDg3IDc3LjI0NDcgMTI2LjQzNCA3Ni41ODY5IDEyNS4zODJDNzUuOTI5IDEyNC4yNjMgNzUuMjcxMSAxMjMuMDEzIDc0LjU0NzQgMTIxLjVDNjkuNDE1OCAxMjcuNTUzIDYyLjk2ODQgMTMwLjU3OSA1NS4yMDUzIDEzMC41NzlDNDkuNjc5IDEzMC41NzkgNDUuMjcxMSAxMjkgNDIuMDQ3NCAxMjUuODQyQzM4LjgyMzcgMTIyLjY4NCAzNy4xNzkgMTE4LjQ3NCAzNy4xNzkgMTEzLjIxMUMzNy4xNzkgMTA3LjYxOCAzOS4xNTI2IDEwMy4wNzkgNDMuMTY1OCA5OS42NTc5QzQ3LjE3OSA5Ni4yMzY4IDUyLjUwNzkgOTQuNTI2MyA1OS4yODQyIDk0LjUyNjNDNjEuNTIxMSA5NC41MjYzIDYzLjgyMzcgOTQuNzIzNyA2Ni4yNTc5IDk1LjA1MjZDNjguNjkyMSA5NS4zODE2IDcxLjE5MjEgOTUuOTA3OSA3My44MjM3IDk2LjVWOTEuNjk3NEM3My44MjM3IDg2LjY5NzQgNzIuNzcxMSA4My4yMTA1IDcwLjczMTYgODEuMTcxMUM2OC42MjYzIDc5LjEzMTYgNjUuMDczNyA3OC4xNDQ3IDYwLjAwNzkgNzguMTQ0N0M1Ny43MDUzIDc4LjE0NDcgNTUuMzM2OCA3OC40MDc5IDUyLjkwMjYgNzlDNTAuNDY4NCA3OS41OTIxIDQ4LjEgODAuMzE1OCA0NS43OTc0IDgxLjIzNjhDNDQuNzQ0NyA4MS42OTc0IDQzLjk1NTMgODEuOTYwNSA0My40OTQ3IDgyLjA5MjFDNDMuMDM0MiA4Mi4yMjM3IDQyLjcwNTMgODIuMjg5NSA0Mi40NDIxIDgyLjI4OTVDNDEuNTIxMSA4Mi4yODk1IDQxLjA2MDUgODEuNjMxNiA0MS4wNjA1IDgwLjI1Vjc3LjAyNjNDNDEuMDYwNSA3NS45NzM3IDQxLjE5MjEgNzUuMTg0MiA0MS41MjExIDc0LjcyMzdDNDEuODUgNzQuMjYzMiA0Mi40NDIxIDczLjgwMjYgNDMuMzYzMiA3My4zNDIxQzQ1LjY2NTggNzIuMTU3OSA0OC40MjkgNzEuMTcxMSA1MS42NTI2IDcwLjM4MTZDNTQuODc2MyA2OS41MjYzIDU4LjI5NzQgNjkuMTMxNiA2MS45MTU4IDY5LjEzMTZDNjkuNzQ0NyA2OS4xMzE2IDc1LjQ2ODQgNzAuOTA3OSA3OS4xNTI2IDc0LjQ2MDVDODIuNzcxMSA3OC4wMTMyIDg0LjYxMzIgODMuNDA3OSA4NC42MTMyIDkwLjY0NDdWMTExLjk2MUg4NC43NDQ3Wk01OC4wMzQyIDEyMS45NjFDNjAuMjA1MyAxMjEuOTYxIDYyLjQ0MjEgMTIxLjU2NiA2NC44MTA1IDEyMC43NzZDNjcuMTc5IDExOS45ODcgNjkuMjg0MiAxMTguNTM5IDcxLjA2MDUgMTE2LjU2NkM3Mi4xMTMyIDExNS4zMTYgNzIuOTAyNiAxMTMuOTM0IDczLjI5NzQgMTEyLjM1NUM3My42OTIxIDExMC43NzYgNzMuOTU1MyAxMDguODY4IDczLjk1NTMgMTA2LjYzMlYxMDMuODY4QzcyLjA0NzQgMTAzLjQwOCA3MC4wMDc5IDEwMy4wMTMgNjcuOTAyNiAxMDIuNzVDNjUuNzk3NCAxMDIuNDg3IDYzLjc1NzkgMTAyLjM1NSA2MS43MTg0IDEwMi4zNTVDNTcuMzEwNSAxMDIuMzU1IDU0LjA4NjggMTAzLjIxMSA1MS45MTU4IDEwNC45ODdDNDkuNzQ0NyAxMDYuNzYzIDQ4LjY5MjEgMTA5LjI2MyA0OC42OTIxIDExMi41NTNDNDguNjkyMSAxMTUuNjQ1IDQ5LjQ4MTYgMTE3Ljk0NyA1MS4xMjYzIDExOS41MjZDNTIuNzA1MyAxMjEuMTcxIDU1LjAwNzkgMTIxLjk2MSA1OC4wMzQyIDEyMS45NjFaTTExMC44NjMgMTI5LjA2NkMxMDkuNjc5IDEyOS4wNjYgMTA4Ljg4OSAxMjguODY4IDEwOC4zNjMgMTI4LjQwOEMxMDcuODM3IDEyOC4wMTMgMTA3LjM3NiAxMjcuMDkyIDEwNi45ODIgMTI1Ljg0Mkw5MS41MjExIDc0Ljk4NjhDOTEuMTI2MyA3My42NzExIDkwLjkyOSA3Mi44MTU4IDkwLjkyOSA3Mi4zNTUzQzkwLjkyOSA3MS4zMDI2IDkxLjQ1NTMgNzAuNzEwNSA5Mi41MDc5IDcwLjcxMDVIOTguOTU1M0MxMDAuMjA1IDcwLjcxMDUgMTAxLjA2MSA3MC45MDc5IDEwMS41MjEgNzEuMzY4NEMxMDIuMDQ3IDcxLjc2MzIgMTAyLjQ0MiA3Mi42ODQyIDEwMi44MzcgNzMuOTM0MkwxMTMuODg5IDExNy40ODdMMTI0LjE1MyA3My45MzQyQzEyNC40ODIgNzIuNjE4NCAxMjQuODc2IDcxLjc2MzIgMTI1LjQwMyA3MS4zNjg0QzEyNS45MjkgNzAuOTczNyAxMjYuODUgNzAuNzEwNSAxMjguMDM0IDcwLjcxMDVIMTMzLjI5N0MxMzQuNTQ3IDcwLjcxMDUgMTM1LjQwMyA3MC45MDc5IDEzNS45MjkgNzEuMzY4NEMxMzYuNDU1IDcxLjc2MzIgMTM2LjkxNiA3Mi42ODQyIDEzNy4xNzkgNzMuOTM0MkwxNDcuNTc0IDExOC4wMTNMMTU4Ljk1NSA3My45MzQyQzE1OS4zNSA3Mi42MTg0IDE1OS44MTEgNzEuNzYzMiAxNjAuMjcxIDcxLjM2ODRDMTYwLjc5NyA3MC45NzM3IDE2MS42NTMgNzAuNzEwNSAxNjIuODM3IDcwLjcxMDVIMTY4Ljk1NUMxNzAuMDA4IDcwLjcxMDUgMTcwLjYgNzEuMjM2OCAxNzAuNiA3Mi4zNTUzQzE3MC42IDcyLjY4NDIgMTcwLjUzNCA3My4wMTMyIDE3MC40NjggNzMuNDA3OUMxNzAuNDAzIDczLjgwMjYgMTcwLjI3MSA3NC4zMjg5IDE3MC4wMDggNzUuMDUyNkwxNTQuMTUzIDEyNS45MDhDMTUzLjc1OCAxMjcuMjI0IDE1My4yOTcgMTI4LjA3OSAxNTIuNzcxIDEyOC40NzRDMTUyLjI0NSAxMjguODY4IDE1MS4zODkgMTI5LjEzMiAxNTAuMjcxIDEyOS4xMzJIMTQ0LjYxM0MxNDMuMzYzIDEyOS4xMzIgMTQyLjUwOCAxMjguOTM0IDE0MS45ODIgMTI4LjQ3NEMxNDEuNDU1IDEyOC4wMTMgMTQwLjk5NSAxMjcuMTU4IDE0MC43MzIgMTI1Ljg0MkwxMzAuNTM0IDgzLjQwNzlMMTIwLjQwMyAxMjUuNzc2QzEyMC4wNzQgMTI3LjA5MiAxMTkuNjc5IDEyNy45NDcgMTE5LjE1MyAxMjguNDA4QzExOC42MjYgMTI4Ljg2OCAxMTcuNzA1IDEyOS4wNjYgMTE2LjUyMSAxMjkuMDY2SDExMC44NjNaTTE5NS40MDMgMTMwLjg0MkMxOTEuOTgyIDEzMC44NDIgMTg4LjU2MSAxMzAuNDQ3IDE4NS4yNzEgMTI5LjY1OEMxODEuOTgyIDEyOC44NjggMTc5LjQxNiAxMjguMDEzIDE3Ny43MDUgMTI3LjAyNkMxNzYuNjUzIDEyNi40MzQgMTc1LjkyOSAxMjUuNzc2IDE3NS42NjYgMTI1LjE4NEMxNzUuNDAzIDEyNC41OTIgMTc1LjI3MSAxMjMuOTM0IDE3NS4yNzEgMTIzLjM0MlYxMTkuOTg3QzE3NS4yNzEgMTE4LjYwNSAxNzUuNzk3IDExNy45NDcgMTc2Ljc4NCAxMTcuOTQ3QzE3Ny4xNzkgMTE3Ljk0NyAxNzcuNTc0IDExOC4wMTMgMTc3Ljk2OCAxMTguMTQ1QzE3OC4zNjMgMTE4LjI3NiAxNzguOTU1IDExOC41MzkgMTc5LjYxMyAxMTguODAzQzE4MS44NSAxMTkuNzg5IDE4NC4yODQgMTIwLjU3OSAxODYuODUgMTIxLjEwNUMxODkuNDgyIDEyMS42MzIgMTkyLjA0NyAxMjEuODk1IDE5NC42NzkgMTIxLjg5NUMxOTguODI0IDEyMS44OTUgMjAyLjA0NyAxMjEuMTcxIDIwNC4yODQgMTE5LjcyNEMyMDYuNTIxIDExOC4yNzYgMjA3LjcwNSAxMTYuMTcxIDIwNy43MDUgMTEzLjQ3NEMyMDcuNzA1IDExMS42MzIgMjA3LjExMyAxMTAuMTE4IDIwNS45MjkgMTA4Ljg2OEMyMDQuNzQ1IDEwNy42MTggMjAyLjUwOCAxMDYuNSAxOTkuMjg0IDEwNS40NDdMMTg5Ljc0NSAxMDIuNDg3QzE4NC45NDIgMTAwLjk3NCAxODEuMzg5IDk4LjczNjggMTc5LjIxOCA5NS43NzYzQzE3Ny4wNDcgOTIuODgxNiAxNzUuOTI5IDg5LjY1NzkgMTc1LjkyOSA4Ni4yMzY4QzE3NS45MjkgODMuNDczNyAxNzYuNTIxIDgxLjAzOTUgMTc3LjcwNSA3OC45MzQyQzE3OC44ODkgNzYuODI4OSAxODAuNDY4IDc0Ljk4NjggMTgyLjQ0MiA3My41Mzk1QzE4NC40MTYgNzIuMDI2MyAxODYuNjUzIDcwLjkwNzkgMTg5LjI4NCA3MC4xMTg0QzE5MS45MTYgNjkuMzI4OSAxOTQuNjc5IDY5IDE5Ny41NzQgNjlDMTk5LjAyMSA2OSAyMDAuNTM0IDY5LjA2NTggMjAxLjk4MiA2OS4yNjMyQzIwMy40OTUgNjkuNDYwNSAyMDQuODc2IDY5LjcyMzcgMjA2LjI1OCA2OS45ODY4QzIwNy41NzQgNzAuMzE1OCAyMDguODI0IDcwLjY0NDcgMjEwLjAwOCA3MS4wMzk1QzIxMS4xOTIgNzEuNDM0MiAyMTIuMTEzIDcxLjgyODkgMjEyLjc3MSA3Mi4yMjM3QzIxMy42OTIgNzIuNzUgMjE0LjM1IDczLjI3NjMgMjE0Ljc0NSA3My44Njg0QzIxNS4xMzkgNzQuMzk0NyAyMTUuMzM3IDc1LjExODQgMjE1LjMzNyA3Ni4wMzk1Vjc5LjEzMTZDMjE1LjMzNyA4MC41MTMyIDIxNC44MTEgODEuMjM2OCAyMTMuODI0IDgxLjIzNjhDMjEzLjI5NyA4MS4yMzY4IDIxMi40NDIgODAuOTczNyAyMTEuMzI0IDgwLjQ0NzRDMjA3LjU3NCA3OC43MzY4IDIwMy4zNjMgNzcuODgxNiAxOTguNjkyIDc3Ljg4MTZDMTk0Ljk0MiA3Ny44ODE2IDE5MS45ODIgNzguNDczNyAxODkuOTQyIDc5LjcyMzdDMTg3LjkwMyA4MC45NzM3IDE4Ni44NSA4Mi44ODE2IDE4Ni44NSA4NS41Nzg5QzE4Ni44NSA4Ny40MjExIDE4Ny41MDggODkgMTg4LjgyNCA5MC4yNUMxOTAuMTM5IDkxLjUgMTkyLjU3NCA5Mi43NSAxOTYuMDYxIDkzLjg2ODRMMjA1LjQwMyA5Ni44Mjg5QzIxMC4xMzkgOTguMzQyMSAyMTMuNTYxIDEwMC40NDcgMjE1LjYgMTAzLjE0NUMyMTcuNjM5IDEwNS44NDIgMjE4LjYyNiAxMDguOTM0IDIxOC42MjYgMTEyLjM1NUMyMTguNjI2IDExNS4xODQgMjE4LjAzNCAxMTcuNzUgMjE2LjkxNiAxMTkuOTg3QzIxNS43MzIgMTIyLjIyNCAyMTQuMTUzIDEyNC4xOTcgMjEyLjExMyAxMjUuNzc2QzIxMC4wNzQgMTI3LjQyMSAyMDcuNjM5IDEyOC42MDUgMjA0LjgxMSAxMjkuNDYxQzIwMS44NSAxMzAuMzgyIDE5OC43NTggMTMwLjg0MiAxOTUuNDAzIDEzMC44NDJaIiBmaWxsPSIjMjUyRjNFIi8+PHBhdGggY2xpcC1ydWxlPSJldmVub2RkIiBkPSJNMjA3LjgzNyAxNjIuODE2QzE4Ni4xOTIgMTc4LjgwMyAxNTQuNzQ1IDE4Ny4yOSAxMjcuNzA1IDE4Ny4yOUM4OS44MTA1IDE4Ny4yOSA1NS42NjU4IDE3My4yNzYgMjkuODc2MyAxNDkuOTg3QzI3LjgzNjkgMTQ4LjE0NSAyOS42NzkgMTQ1LjY0NSAzMi4xMTMyIDE0Ny4wOTJDNjAuMDA3OSAxNjMuMjc2IDk0LjQxNTggMTczLjA3OSAxMzAuMDA4IDE3My4wNzlDMTU0LjAyMSAxNzMuMDc5IDE4MC40MDMgMTY4LjA3OSAyMDQuNjc5IDE1Ny44MTZDMjA4LjI5NyAxNTYuMTcxIDIxMS4zODkgMTYwLjE4NCAyMDcuODM3IDE2Mi44MTZaIiBmaWxsLXJ1bGU9ImV2ZW5vZGQiIGZpbGw9IiNGOTAiLz48cGF0aCBjbGlwLXJ1bGU9ImV2ZW5vZGQiIGQ9Ik0yMTYuODUgMTUyLjU1M0MyMTQuMDg3IDE0OSAxOTguNTYxIDE1MC44NDIgMTkxLjUyMSAxNTEuNjk3QzE4OS40MTYgMTUxLjk2MSAxODkuMDg3IDE1MC4xMTggMTkwLjk5NSAxNDguNzM3QzIwMy4zNjMgMTQwLjA1MyAyMjMuNjkyIDE0Mi41NTMgMjI2LjA2MSAxNDUuNDQ3QzIyOC40MjkgMTQ4LjQwOCAyMjUuNDAzIDE2OC43MzcgMjEzLjgyNCAxNzguNDc0QzIxMi4wNDcgMTc5Ljk4NyAyMTAuMzM3IDE3OS4xOTcgMjExLjEyNiAxNzcuMjI0QzIxMy43NTggMTcwLjcxMSAyMTkuNjEzIDE1Ni4wMzkgMjE2Ljg1IDE1Mi41NTNaIiBmaWxsLXJ1bGU9ImV2ZW5vZGQiIGZpbGw9IiNGOTAiLz48L3N2Zz4=;" vertex="1" parent="1">
          <mxGeometry x="807" y="88" width="90" height="90" as="geometry" />
        </mxCell>
        <mxCell id="s8ikmo4zl2_qSsBDsND9-27" style="edgeStyle=orthogonalEdgeStyle;rounded=0;orthogonalLoop=1;jettySize=auto;html=1;entryX=0;entryY=0.5;entryDx=0;entryDy=0;curved=0;" edge="1" parent="1" source="s8ikmo4zl2_qSsBDsND9-25" target="s8ikmo4zl2_qSsBDsND9-23">
          <mxGeometry relative="1" as="geometry">
            <Array as="points">
              <mxPoint x="380" y="610" />
            </Array>
          </mxGeometry>
        </mxCell>
        <mxCell id="s8ikmo4zl2_qSsBDsND9-50" style="edgeStyle=orthogonalEdgeStyle;rounded=0;orthogonalLoop=1;jettySize=auto;html=1;" edge="1" parent="1">
          <mxGeometry relative="1" as="geometry">
            <mxPoint x="470" y="84" as="targetPoint" />
            <mxPoint x="316" y="84" as="sourcePoint" />
          </mxGeometry>
        </mxCell>
        <mxCell id="s8ikmo4zl2_qSsBDsND9-43" value="" style="shape=image;verticalLabelPosition=bottom;labelBackgroundColor=default;verticalAlign=top;aspect=fixed;imageAspect=0;image=data:image/png,iVBORw0KGgoAAAANSUhEUgAAAOEAAADhCAMAAAAJbSJIAAAAflBMVEX///8AAAAdHR3j4+NoaGj39/c4ODjJycl9fX3q6ur8/Pzt7e1HR0fy8vLg4OClpaW8vLzZ2dm2traXl5fCwsJubm5WVlaMjIzOzs5lZWWrq6txcXGdnZ3a2tovLy9BQUEnJyd7e3sRERFZWVkYGBhOTk6EhIQsLCwiIiI7OztKJtiuAAAGGElEQVR4nO2ae1vyPAzGLQc5DAbjJHJQUFT8/l/wha3p2i7JEOXS573u33+uTZe7S9s0cncHAAAAAAAAAAAAAAAAAAAAAAAAAAAAAAAAAAAAAAAAAAAAAAAAAAAAAAAAAAAAAAA/z8NvO3BrVib7bRduS9+Yz9/24ba8G2MmcnO/bdHGsF2GP+3bBdR71zNnlA4NUzCWu+xtl/W1bl5P075a6bLIOyibTcfUDbKlHup3vg31Csn/ntzl1XYRZ2FgO4y+4+qV1CukGHyVu/ToEyV8+9g2N77n63XUKhyR92Ypj/JuuzzyzTRC55vOXkWdwrYTaJ7kUfrUhz03p7Zx8X13r6BO4b5UaFbyMBPb5Z5pS8heWck3pEZhanz68jg724U5N1u26f1HHP4yNQoHgcKuPE4mzgLX0k6a297XT/+TWZbKZsMkTZPKeaQrnJmQpvz2R+lLPccxvtzfF08ai1Xo7mp0ZmPf0s4m/rrIutbs8DqqquxPHm0YfcxnX1D4Eil8kxUOhVmgFUr71OoQjLj2u38Uz/Itd3UOn49ymF1g9piGL38I/Zx6X1JVODUxM7ZfDr0k2jHJsjhrsmNlSC9NuHcK7bxQwp8+Vcz8WFlVWj1HNYXDquFRVsifeqS7OCkn1RFPgeEWqFPYNYHCeLHkPDuzOdc8vURhizHcyArJ/Z33LMx2WIEnXyOFyw21fMoCy5OJc9OTqCjMWEMld6Y9xcs+af/JQzFlBzyxDxWWQfcZzFJMERcbqblTq7Aa+2eU+0/1BrE0/vBuDX5ssl7SHJeT3wkUlkdUrtD92Zgum0nqmW2DaVtM0iTZrkrrdo1CIaRMWu1K0IJw5yZNUp4HuE/jvnGT2huBQqcoX/YuRt0C6RXBss/PDLrXlGmzM3jQFbpUM+a50tXhtiY7C6RpkP9F+72fwdOEd2KFrbxXz3vob+MnWW9p4P/BWz0urPuqwuiE8VCu8rQm3sJJOkeTi+Gpb0BzMo8UlvsxuRtkEu0DOUEHWpDy021trCkUlzc3GyWUIuQTTneqdaCenZNGqNBLAygOhJzY7m6t8KkdqKsppE2QYxp3LqE1cPCGNkWOZRfpcd7yWfh9SKGfrHVZCQSFySAYdP5ZPL1XFLpNkEW4yp95s102VN9xOwS/NRNLT+GBGVC4uWmhZsyLovBDtRSu8v54pk31nRfbchAGK5h5CoMlZ/ciYfHrCvPzglfIJHoBSgmcEq4ufTPaA6sZqaQwuGMOmGcXKxxKCtuqmeGv8oKtS8Sf2ZEIP0qDxNbGuhCliTwiqWIVdlWzM0oJfBT2dNviuvj7ZddgKJY2p9BuyFIqZd/SODKDHp4lhWL+6KEUNII1XK6pUb0lp5AWjGBiNyLl4sopfDP1XFICP1OmGvSm+dcUkll4qXml3JHmTU5DGIXCZSVCKZx5Z6m/fChDC47TlR/vnEJ3yvjJ3iniu8XcuUQxqOa+e8kzo7BhLuGSErhXhbjzvu28/LCnVTYovWEVuhtA+ZmKJV0k8G7PKO9svYGbAFaheN+KUArYLqcNy+QLZ7vvJO3+MLP99uQNq7BMFQbjXv+un7rayst5Fyv37uM0G/b7yawVKq4orD0piJ2skHKp6DszVRHLRlO4layK4pa4qI4Zr3B9qULtH0k2suK1ylcNTHwDjqNjJFjZmmK1XlbQGLIKRScY6goa1f1W+ByUIgkKBYk9vfnZuhcr1DOPkLoSOPO8zdxZBi6RlxRyF4GBVxXeMhmhO4gjhVLpgkcvaPB5zzL8R4F58k6yJ0lh5UK+iwZfRbVrr2IcKYyL3DpqCVz8+UY6dTfdxnuQwz/suyfWW86qPSk//5yZg07X+T7Y+Ne7ZN3NYWeqFq0ErvxD9bTldyaTWabcM1may/FkvBWtkmw2Gc9SJS2sy9SrvCiD/Um00gWPUgL/i+ilC57f+AnQ9dzXC6qg3BT+HnWlC55/6Dd9YpFbRymB/zXe69WwKAWNv0VN1Urhtz2/lK+fFMS/8gNiLRO4lSUAAAAAAAAAAAAAAAAAAAAAAAAAAAAAAAAAAAAAAAAAAAAAAAAAAAAAAAAAAAAA4H/Af18LP7gOpTVZAAAAAElFTkSuQmCC;" vertex="1" parent="1">
          <mxGeometry x="194" y="28" width="112" height="112" as="geometry" />
        </mxCell>
        <mxCell id="s8ikmo4zl2_qSsBDsND9-45" value="" style="shape=image;verticalLabelPosition=bottom;labelBackgroundColor=default;verticalAlign=top;aspect=fixed;imageAspect=0;image=data:image/jpeg,/9j/4AAQSkZJRgABAQAAAQABAAD/2wCEAAkGBw8PEA8PERAVDxAOEBAQEBAPDw8QDxUPFxIWFxUSFRcYHSggGBolHRUVITEhJSktLi4uGB8zODMsNyotLisBCgoKDg0OGhAQGi0mICYtLS8tLS8tLS0tLTItLS0tLS0tLS0tLS0tLS8tLS0tLS0tLS0tLS0tLS0tLS0tLS0tLf/AABEIAKgBLAMBEQACEQEDEQH/xAAbAAEAAQUBAAAAAAAAAAAAAAAAAQMEBQYHAv/EAD4QAAIBAgEJBQUGBQQDAAAAAAABAgMRBAUGEiExQVFhkRMicYGhBzJSscEjQnKCktEzU2Jz8BQkROE0Q+L/xAAbAQEAAgMBAQAAAAAAAAAAAAAAAQUDBAYCB//EADMRAQACAQIEBAQEBgMBAAAAAAABAgMEEQUSITETMkFRImFxgUKRsdEzocHh8PEGIzRS/9oADAMBAAIRAxEAPwDuIAAAAAAAAAAAAAAAABEpJK7dkt71IDH18u4On72IprkqkZPojxOSsd5Z66bNbtWfyWks7snr/kLyhUf0PPj4/dljh+pn8Epjnbk9/wDIivGNRfNDx8fuTw/Ux+CV7h8sYWpqhXpyb3dpHS6bT3F6z2lgtgy181Z/JfHpiAAAAAAAAAAAAAAAAAAAAAAAAAAAAAAAAAAAYjLGceFwmqpPSn/Lh3p+fDzMd8tad21g0eXN5Y6e/o0zKefeJqXVGKoR46p1Leasuhq21Np7dFxh4Tjr1vO/8oa1i8bWrO9SrOp+OcmvJbjXte095WWPDjx+WsQt7HllAIAgJXmCytiaGulWnC25Sbj+l6me65LV7SwZNNiyeasNpyV7QKsbRxFNVI/HTtGfnHY/Q2KaqfxQq8/B6z1xzt8pbpkrLOHxSvRqKTW2D1TXjF6/M2qZK37Sp8+myYZ2vGzIHtgAAAAAAAAAAAAAAAAAAAAAAAAAAAAAKWJxEKUJVKklCEVdyk7JETMRG8vVaWvPLWN5c+zhz1qVdKnhr0qex1NlSXh8K9fA08momelV9pOF1r8WXrPt6NQk7u71t7W9prLeI27IISMSBCUAGB5YSAQB7o1ZQkpwk4SjrUotqSfihEzE7w82pFo5bRvDe828+b6NLF6t0a6Vl+dbvFf9m7i1PpZRavhW0c+H8v2b3GSaTTumk007prc0bakmNkgAAAAAAAAAAAAAAAAAAAAAAAAABb5QxtPD05VastGEFdv5JcW+BFrRWN5e8eO2S0Vr3cnzjzhq42d3eFGL+zpX1filxl8iuy5ZvPydPpNHXBHvb1liUzE3UsJQAYkCEoAMDywkAMCAIIS2fNLOueEapVW54dvm5U+cf6eK6c9nDnmvSeyr1/DozRN8fS36upUqkZJSi1KMkmmndNPY0WDmZiYnaXoIAAAAAAAAAAAAAAAAAAAAAAAHmc1FOTaSim227JJbWwmI36Q5FnbnE8bVtFtYek2qcdmk99Rri93BeZXZsvPPTs6bQ6SMFd580/5swaZhb72mEw9hKAAkCEoAMDywkAAQBBCUAbjmFnH2M1hasvsqjtSk3qhUf3fwt9H4m3p8u08sqbimii8eLSOsd/n83Szec6AAAAAAAAAAAAAAAAAAAAAAANG9pGWnGKwVN2lUSlWa3Qv3YedtfLxMWXrGzUycRjS56bRv6z9P86ubRflxXMrpjbo7zFlrlpF6z0lUTIZXtMComEpCQhKGB5c1xXUG6NNcV1QN4NNcV1ROxujTXFdSDc01xXVDZO6NNcV1GyN4HNcV1Gyd4RpriuqGxvBpriuqGxvDrGYuXf8AV0NCcr1sPaM9euUPuz9LPmuZY4MnNXr3crxHSxhy717T2/ZspnV4AAAAAAAAAAAAAAAAAAAACjjMTGlTnVm7RpxlOXglcPNrRWs2n0cSx+LlXq1K0/eqzcnyvsXglZeRgmd3K5ck5LzefWVjWjZ6S8zXy09XXf8AG+ITtOmt6dv6wQlc13ZxO6omEvaYS9phLM5DzbxGLtJLs6X82adn+Bfe+XMy48Fr9WjquIY8HSOstzwGZ+DpW0oOvLjVd1+ld30Zt1wUhR5eI58nrt9GVVLDUtWjSpLhanAz1xT6VaVs0/isnsMPV+5TqLlGEjzfDE+aqa5rellhis3aEtcF2b5a49GaWXh+O/l6NmmsyV79WBxuTZ0XaUVZ7JJJxfn9Cl1Gny4Z+Lt7rDFnrk7SoKC4LojV5pZntU1wXRHmbSbvcaK+FdEeZvPuKscOuC6I8zeTd7VCPBdERzybrzJdVUasZWsnqlZfdf8Alza0OpnFmiZnp2lg1GPnpMNvOwUoAAAAAAAAAAAAAAAAAAAADUfaTj+zw0KKevETSf8Abh3n66C8zxeeiu4nl5cXLHq5kYlANX1cRMbsuHLbDki9O8LRrRduHqjTtXadn1DQ6uupw1y19VWMjwsIndViw9NpzNzc/wBS+3qr7CDtGOztJravwrfxeribGDFzdZ7KriOt8L/rp39Z9m65XyvRwcFpa5NWp0o2TaXyjzLfTaa2adq9nMZs8Uje3do2Us4cTXbvN04boU24q3N7WX2DQ4sXpvPzVmTU3v67MTY3IiI6Q10xdndamt61PqRMRPeCJ27M5krOnEUWlN9vT3qb76XKW3rc0c/DseTrXpP8m1i1d6d+sN4weLoYylpR78JapRfvJ/C1uZz2o0013pkhaYs0T8dZYTGZMVKVrtxeuL+j5nJa7TTp7dPLPZdYM/iR17qcaaW4rpmZbD1YgLATYCdEG7aMl1tOlB70tF+K1fsdloM3i4K29e0/ZSZ6cl5hdm2xAAAAAAAAAAAAAAAAAAAAcx9pWJ0sXCnfVRor9U5Nv0UDFfuoeKX3yxX2j9f9NSPCtAKVeF1fevkY8td43dF/x7iHgZvBtPw2/lKjF2NV38dGQyThJYitSox1OrJRv8K2yl5JN+RNa81tkZssYsc39nXMRVpYLD3StToQUYRW/dGPi2XGDFN7Rjq47Nl75LOaY3Fzr1JVajvKT8kt0VwSOrxYq4qxSvZRXvN55pW5leQAAAv8iZUnhaqqLXF6qkPih+62o1tVpq56bevoy4cs47bulV4RrU+601JKUJbtl0/U47V6fxcdsdu/6L7Dk5bRaGBS8v3OKtE1mYldxO8bwmxAaIN02AlIhG7M5AnqqR4NSXnqfyR0XBMm9b09pifz/wBK/WR1iWWLxpAAAAAAAAAAAAAAAAAAAAcezzq6WPxT4TjH9NOK+aZht3czrp31Fvt+kMKeWoAAmJmJ3hbVIWfJ60auSvLL6VwXXxq9PEz5o6T+7b/ZlhlLEVqr/wDVSSX4pu1+kZdTJpo+KZZOK32x1r7z+jNZ/wCKdqNFbHpVJeXdj85HTcJx9bX+zkddbtVppdq8AAAICADoWZGKc8LovW6M3D8uqS+bXkc3xPHyZt49Vto7c2Pb2VMbTtUmuL0uqu/W5wfE8cU1Fvn1dBprb44UbFe2E2AEABkMhy+0a4wfo0XPBbbZrR8v6tPWR8EM6dKrgAAAAAAAAAAAAAAAAAAAOMZ1f+bi/wC9L6GG3dy+s/8ARf6/0hijy1gAB5qRuue483rzRss+E6+dHqIvPlnpP7t29lbVsZx+w6faEabpu7XisxaKTHbqZ+r/AHNP+xG365nVcK/hT9XKa3zx9GtFo0wABAEXCADdvZ7fQxHDTp9bSv8AQouLeev0WWh8sstlP+J+WP1OB4x/Hj6Oh0fkWpVNsIAABfZF/i/ll9C14N/6PtP6w1NX/D+7PnUq0AAAAAAAAAAAAAAAAAAADjuelLRyhilxlCS86cW/W5ht3czr67ai32/SGFPLTAAADaPZzidDFVKe6vS1fjg7pdHPoKRtf6uo0Gt8fTRhvPxU7fOJZvP/AAjcaNZbIN05eEtcX1T6l/wnJta1J+rFrabxFmll4rgCAICAAB0XMvCOnhYyep1pOp+V2UfRX8zmuI5YvnmI9Oi30lOXH9XvGT0qk3wdumo4PiWTn1FtvTp+S/01eXHCiaDYABACBkMhx+0k+EH80XHBK/8AdafaP1n+zT1k/BEfNnTplcAAAAAAAAAAAAAAAAAAABzH2m4bQxVOrurUUvzQk0/SUDFfuoeK02yxb3j9P9tQPCrAAACvgMXKhVp1o+9TkpLnxT5NXXmIZcOW2K8Wq67ejjcP8VKvDzX/ANJ+qNvFkmlovX0dRE1zY/lLmmUsBUw1SVKa1rZLdKO6S5HVYM9c1ItVT5Mc0ttK1MzGAAIAyub2R5Yuqla1KDTqy5fCub/7NPWaqMFPn6NjBhnJb5Oj4ioqUNVlZKMEtmzV5I4/V6iMOObzPVe4sfNaIYU4yZmZ3lcRGweUgAABl8g09U5cWory1/VHR8Ex7Utf3nb8v9q7WW+KIZYu2mAAAAAAAAAAAAAAAAAAABqXtJwHaYRVUu9h5qT49nLuy9dF+R4vHRXcTxc+Hmj06uXmJzwAAAQBseaOcjwkuzqXeHm7ve4S+JLhxXn4+q22WGi1ngzy28s/ydAx+AoYyktK04taVOpBq6vvizcwai+G3NSV7elMtWlZTzUxNJtwXbw3OHv25x/a5eYOJYr9LdJV2TSXr26sJVozg7SjKL4Si4v1N6uSlu0w1prMd4TQwtSo7Qpym/6ISl8iLZaV7zH5pilp7Q2HJWZ9ao1Ku+xh8KadV8uEf81Fdn4pSsbY+strFo7T1t0ht1WrhsBQvJxo0aa82/nKTKTLkte3Nad29NqYae0MVTxU6yVWcXDTV403thDdF/1b3zdtyOR4lqvGybR2hbaLHMU5rd5eysboAAAQBsmTaWhSgntau/F6ztNFh8LBWny6/dT5rc15ldG0xAAAAAAAAAAAAAAAAAAAAUsTQjVhOnNXhUjKElxi1ZoPNqxaJifVw7KeBnhq1ShP3qUnG/FbYy800/MwTG0uTzYpxXmk+i2IYwAAAAZXImcGIwb+zlpQbu6U7uD5r4XzRMWmGzp9XkweXrHs3bJ2fOFqJKqpUJb7pzhfk1r6oyReFxi4lit5ujMU8uYSS1Ymk/GpFejPW8e7ajU4bdrQ8184MHBXliaerdGak+kbkbwidVhr3tDXcq+0OhBNYenKtLdKfcp+PF+GoibtXLxGkdKRu1vJU6+VMV22Ilp08Paeja1NS+5CMdm675LXtK7iGp8LH07ynh+G+rz8+TtDdzlnWhCQABAFxk+h2lSMdy70vBbvPYb3DtN42aI9I6ywajJyU+rZjsFSAAAAAAAAAAAAAAAAAAAAAAaR7SciacFjILvUVo1kt9K+qf5bvyb4Hi8eqr4lpueviV7x3+n9nNzEoAJAAACAAQgDxVlqD1WFuouTUYpuUmoxitrk3ZJCZiI3lsUrNpiIdQyHk1YWhCktcveqSW+o/efhuXJI5TWaic2SZ9PR3Wh00afDFPX1+q/NVuBAAAIY6z0hG7YMlYXs4XfvT1vkty/zidfw7S+Bi6956z+yq1GXnt07L432AAAAAAAAAAAAAAAAAAAAAAAiUU001dPU09aa4AcjzzzbeCq6cF/tqr7j26Ev5b+j4eBitXZzmu0k4bc1fLP8muHhoFwAAIAIuBDYFCrIMtIbLmNkvTm8VJd2m3ClffUt3peSdvF8iq4pqeSnhx3n9HRcF0nPbxrdo7N3Oe3dQBIAAAZHJGC0n2sl3U+6uMuPgi94Vod58bJH0j+v7NHVZvwV+7OHQtAAAAAAAAAAAAAAAAAAAAAAAAAKGNwlOvTnSqRU4VFaUXw+j5h5vSL1mtuzkmdObNXAz0tdTDyfcq21p7oT4S57H6GG1dnOavRWwTvHWv8AndgLnlolwAAABTmwmIRhMNOvVhShrlUloq+xLfJ8krvyPGTJGOs2n0bemw2y3ilfV1PBYWFGnClBWjTiori+LfNu7ficjmyzlvN59XfYMVcWOKV7QrGJmAIAXAvsm5PdW0paqfrLw5cy54fw2ckxky9vb3/s08+o5fhr3Z9JJWWpLUktljpYjbpCuSAAAAAAAAAAAAAAAAAAAAAAAAAAFOvRjUjKE4qcJpxlGSTi09qae0ImImNpc7zlzCnByq4Tvw2ug334/gb95cnr8dhjtT2Uuq4ZMfFi/L9mjzg4txknGUXaUZJqSfBp60zGqJrNZ2nu8hABEmBRmw9xDc8x8l6EHiZLvVlo077qV9cvzNdEuJRcV1O8+FH3ddwTSclPGt3nt9G0lMvwCAJjFtpJNt7EldmTHivknlpG8vNrxWN5ZbA5J2Sq696gta/Nx8NnidDo+FVxzF8vWfb0aGbVTbpVly5aYAAAAAAAAAAAAAAAAAAAAAAAAAAAAAAxeWcgYXGL7amnJKyqR7tReElu5PURMRLDm0+PLHxw0jKvs6rwu8PVjWj8FXuVPDSXdl6Hiaeypy8KtHXHO/1atjsj4qhftcPUgl97QcofrjePqeJrKvyabNTzVli5VE9j6MhiiF5kTJzxVeNLXoLvVXwprb5u6S8eRr6rPGHHNvyWPD9JOozRT09fo6bGKSSSskkklsSWxI5O9ptMzLu61isREdhyS3+qIiJnsmZVqWHqT92Enztox6vUbeLQajJ2rP36MVs9K95X9DIsnrqTtyhrfV/sWmDgsd8tvtDWvrP/AJhlMNhoU1aEbcXtb8XvLnFhpijlpGzTtebTvKsZXkAAAAAAAAAAAAAAAAAAAAAAAAAAAAAAAAAABaYrJmGrfxaFKr/cpQn80RtDxbHS3miJUMNkHB0tJ08PTp6dtLQgo3te17eLMd8GO/mrEvWKsYvJG30XCydQ/lR84pmONHgj8Efky+Lf3lWpUIQ92EY/hil8jNXHWvliIeJtM91Q9oAAAAAAAAAAAAAAAAAAAA//2Q==;" vertex="1" parent="1">
          <mxGeometry x="490" y="64.4" width="53.57" height="30" as="geometry" />
        </mxCell>
        <mxCell id="s8ikmo4zl2_qSsBDsND9-46" value="" style="shape=image;verticalLabelPosition=bottom;labelBackgroundColor=default;verticalAlign=top;aspect=fixed;imageAspect=0;image=data:image/jpeg,/9j/4AAQSkZJRgABAQAAAQABAAD/2wCEAAkGBw8QDxAPEBAQDxAODw8PEA8SDxEQEBAPFRIWGBUVHxYfHSggGCYmGxMVITEhJSorLi4vFx8zOD8sOigtLisBCgoKDg0OGhAQGzImHyUtLS0tNy8tLS0tLy0tLS0rKysrLS0tLS0tLS0vLS0tLS0tLS0tLS4rLS0tLS0tLS0tLf/AABEIALcBEwMBEQACEQEDEQH/xAAcAAEAAQUBAQAAAAAAAAAAAAAAAwECBAUGBwj/xABCEAACAgACBgUJBgQEBwAAAAAAAQIDBBEFBhIhMUFRYXGBkQcTIiMyQmKhwVJygpKx0RQzQ8JTouHwF0Rjg5Oy0v/EABoBAQACAwEAAAAAAAAAAAAAAAABAgMEBQb/xAAzEQEAAgECAwQKAgICAwAAAAAAAQIDBBESITEFQXHREyIyUWGBkaGx4ULwFMEjUhUz8f/aAAwDAQACEQMRAD8A9xAAAAAAAAAAAAAAAAAAAAAAAAAAAAAAAAAAAAAAAAAAAAAAAAAAAAAAAAAAAAAAAAAAAAAAAAAAAAAAAAAAAAAAAAAAAAAAAADHxmOqpWds4wXLN732Li+4vSlrztWGLLnx4o3vbZoMZrjUt1VcrPik9iP1fyRtV0Vp9qdnKy9tY4/9dZnx5R5/Zqb9bcVL2fN1rllDN+Lb/QzRpKR1aF+2NRbptHy8/Jhz1gxj43y7owX6It/j4/c157R1U/zn7eS1adxa/rz/AMr+hWcFPciO0NT/AN5+3kmq1nxkf6ql1Srh9EjHbBT3MtO1NTXrbfxiP9bM/Da6Wr+ZVCfXFyg/nmYrYI7pbePtrJHt1ifDl5tzgta8LZulKVL/AOosl+ZZrxyMNsVodDF2rp79Z4fHz6N3XNSSlFqSe9NPNPvMboxMTG8LgkAAAAAAAAAAAAAAAAAAAAAAAAAACO++FcXOclGMd7k3kkTWs2naFb3rSvFadocjpbWyUs4YdbMf8WS9J9keXf8AI6WLQxHPJ9HA1Xa9rerh5R756/KO75/SHNW2SnJylJyk+MpNtvvN2KxEbQ4trTaeK07ysyGyqhAEbChXZChSYSGOYDIw2haGXgMddQ86pyh0rjF9seDNa7Pgz5MM70nb8fR1+iNaYWZQvSqnwU/6cn/b37uswzLvaXtSt/Vycp+36/vN0aYdYAAAAAAAAAAAAAAAAAAAAAAAAMTSWkK8PW7LH1RivalLoSMmLFbJbhqwajUUwU47/wD3wcBpbStuJlnN5RXsVp+jH931nbw4K4o2jq8pqtXk1Ft7dO6O6P38WCZWsoAKoUIAqhQiRQohQrMJXRRrZFoXpGpdeF6RrWlaG80Fp2dGUJ5zp6OModnV1GOMm3V0tHrrYfVtzr+PDydtVbGcVKLUoyWaa4NGeJ3eiraLRFq9F5KwAAAAAAAAAAAAAAAAAAAACHGYqFVcrJvKMVm+l9CXWXpSb2iterHly1xUm9ukPOtK6RniLHZPcuEIcoR6P3Z3cOGuKvDDyGq1NtRk47fKPdH96sIytcAoyAIQFRQhChAFJQoVlK6JqZFoSJGneV4SJGteV16Rr2lZudX9KuiWxJ+qm9/wP7X7jFl4Z2no6Oh1c4bcNvZn7fHzdsmbz0QAAAAAAAAAAAAAAAAAAAADhdbNKedt81F+rpbXVKzg33cPE7GiwcFeKes/h5jtTV+lyejr7NfvP66fVoTdctDiMXXX7c4x6m9/hxC1azbpDAs09UvZjOXWkkvm8wyRht3onp9f4T/Ov2I5p9B8V0NPQ51zXZsv6ojmj0E+9lU6UoluU1F9Ek4/ruKypbFeO5mEMShUCqFClkr0amSV4SRNK8rwkiat14SRNa0rQkSMMys6zVfH7UHTJ+lWvR64dHd9Ubuly8UcM9zu9najir6O3WOnh+m9Nt0wAAAAAAAAAAAAAAAAAAazWLH+Yw8pJ5Tl6EPvPn3LN9xn02L0mSInp3tLX6j0GGbR1nlHj+urzXEYiFcXKbyS8W+jrO68lWszyhz2N01ZZurzrj0r2338u4tFWxXFEdWvjDnzfF82W4WTiSKBPCrxL1WOFHEbBHCcSjrKzVbiSYfEWVexLJfZe+L7v2KTUmK26t1gNJxs9F+hP7PKXY/oYrRMNbJimvOOjOKMIY7SmF8TUySvCSJp3XhJE1Lrwlia9l4SxMFlmVgcQ6rIWL3XvXTHmvAjHeaWizNhyTivF47neRkmk1vTSafSjtxO/N6iJiY3hUJAAAAAAAAAAAAAAAAADg9f9JRjYot+jRDOXXOfLw2fE6mhp6sz73m+18s3zRjjuj7z+vy8xxmKndPalw92PKK/3zOrWuzTrEVjaFsIF4qiZTxgW4VJskUCdld16iNjdXYI4TiUcCs1TFkcoFJheLIpw/30GOarxZudFY5zWxP20tz+2v3NXJXha+XHtzjo2Jr2liXxZq3laEkWal2SEsWa11oSRZr2XhLFmCYWXbRTZLtNXb9vDQ6YZwfc93yyOtprb44ei0F+LBHw5f35NkZ24AAAAAAAAAAAAAAAAAHhmumkXfi7Un6MbJd74LwikvE9HpMfDjjweSy24st7++Z+kcoaauBuRVhmU8UW2UmUiYQuTAqmQLkwhttW9CWY62UK/RrraVtzWcYN79n4pZb8uXPLNZ6mp1dMMe+fc3dLocmed+lff5PR9H6n4Glb6VdLnO31mf4X6K7kcXJrc1567eHJ3sXZ+DHHs7+PP9MnEas4CxbMsJQk+cK41y8Y5Mxxqc0fyn6sltHgmNuCPpt+HE6z6iSoTxGDcpxr9KVL9KcUuLi/eXU9/abuHWRk9TJ9XN1XZ3DE2x8493k1NFqnGM1wkszFfeszEuBMbTsmizWvKYSRZrXleEkWa1loSxZgstC9MxSsu2iqXV6nz9VYuizPxiv2N/R+zPi7fZU/8do+P+m/Nt1AAAAAAAAAAAAAAAABHfZswlL7MZS8FmTEbzsi07RMvnZNybk+Mm5PtbzPXVrtGzxvSNk0TJsouTIQuTAuTIFUwNdjsbOU1h6d9k5RrzX2pPJRXXm+PI1s2XbeI+bd02m4trW+T3/V3Q9eCwtWGrW6qKUpc52PfOb6282eayXm9ptL1FKxWsRDZFFgAB5rrPoxYbEzUFlXd66CXCLk/TivxJv8RsTk4oiZ69Hlu08EY828dJ5+f9+LVJmG0ufCSLNe0rwkizBZZImYZWhepGOUq7RVLr9TI+psl025eEV+5vaSPVnxd3suP+O0/H/ToDbdMAAAAAAAAAAAAAAAAYulVnh70uLpty/Iy+P248YUyexPg+foLceweMlcBcmBcmQhcmBi6Sxfm4bvaluj1dLMWW/DHLqz6fFx259IYmq2Sx+Cb4fxuFb/APNA0Mkf8dvCfw62OfXr4w+mDgu0AAAHGeUFraw65qNufY3DL9GRM7OD2ztxU+f+nIlJs4y5MxWlMJEzDMrL1IxTKV6kUmVldopI9E0FhXVh64NZSy2pLolLe13Z5dx1cNOGkQ9RpMXo8Naz182wMrZAAAAAAAAAAAAAAAAFtsNqLi/eTXiiYnad0TG8bPneUXFuL3OLaa61uZ7OJ35vFzExO0gQqQLkwLkyENFpC3btfRH0V3cfnmaWSeKzqYKcNI+q3D2ShKM4+1XKM4/ei8180Rw7xtLJvtO8Pp3AYqN1Vd0HnC6uFkX8Mopr9TztqzWZie53q2i0RMJyqQCkpJJttJJZtvckgTOzzHWHSX8RiJWL2I5Qr+4ufe233mva+8vJ6zP6fLNo6dI8GsMc2apmUmyVykY5lKRSMcysuUikylvdVtFu+1WSXqqmm+iU1vUfq/8AUz6bFx23npDf0Gm9Lfin2Y/LvTpvRAAAAAAAAAAAAAAAAAAA8K1twnmcfiq+XnpTX3bPTXyl8j1ejvx4Kz8PxyeT1uPgz2j47/Xm1KNlqqoCpATnlFvoTfgiLTtG6axvMQ56BoQ68p4ovCj1/wAkGn1ZRLAzfrMPnOrPjKiT3r8Mn4SicnX4eG3HHSfy6eiy714J7nohz28AazWTCWXYWyuv22otLPLaSkm459aRTJEzXk1dbitlw2rTr/eTzGyDi3GScZReTi1k0+w0Zts8rNZidp6rSk2FCk2Nlcys2SqpFUt/oLVy3ENTmnVTx2mspTXwr6vd2mfFp7X5zyhv6XQXy87cq/efDzd9hcPCqEa4RUYxWSSOlWsVjaHoKUrSsVrHJKWXAAAAAAAAAAAAAAAAAAB5l5WdG5WU4pLdOLpm+W1HOUfFOX5Tudk5d62xz4+f9+Lhdr4udckeDgDsOMqgKgRYv+XP7r/Qpk9mWTD7ceLTQNKHTlMi6jJ0ZpC3DXV4imWzZVLai+XQ01zTTaa6GUvSL1mtui9LzS0Wh79qnrLTpChW1tRsjkrqW85VT+qeTylz7U0uDnwWxW2np3OzhzVy13huzCzAGJj9GUXr1tcZ8lJrKS7JLeilqVt1hhy6fHl9uN/772kv1Kwz3wnbDqzjJfNZ/MwTpKT0mWlbsrFPSZhiy1FjyxD76k/7in+H8WKeyI7r/b9rqtRq/evm18MIx/XMmNHHfKY7Jr32n+/VuNH6uYWlqUa9qS4Tm9t59PQu5GamClekNzFocOPnEc/jzbYzNsAAAAAAAAAAAAAAAAAAAABq9ZdErF4W2h5bUo51t+7ZHfF+O59TZn02acOWL/XwYNThjNjmjwiyEoylGScZRbjKL4qSeTXietiYmN4eRtWaztKgQqBbdHOEl0xa+RW8b1mFqTtaJaSBow6spkXUUAy9E6Uvwl0b6JuuyO7Nb1KPOLXvJ9BjyY63rw26MlLzS3FV7Hqn5RMLi1Gu9xwuIeS2ZSyqsfwzfDP7L3792ZyM+jvj515w6mHVVvynlLtTTbQAAAAAEOJxVVeTsshWpSUYuc4x2pPglnxfUTETPREzEJiEgAAAAAAAAAAAAAAAAAAAAPMfKdq7sT/jqo+hNqN6Xuz4Rn2Pcn15dJ3ey9VvHobfLycPtTS7T6avz83AHYcVUgVTA0t1ezOUeh7uzkaFo4bTDqY7cVYldFkwkJQoQkYS32g9cdIYNKNV7lWuFNq85Wl0LPfFdUWjXy6bHk6xzZsefJTpLtdHeV6PDE4SS6Z02KWf4JZZfmZp37Pn+Nvq2662P5Q3uH8p+i5LOU7q+qVE21+XMwTossd33Zo1eOe9NLylaIX/ADEn1LD4j/4I/wAPN7vvCf8AKxe9rsZ5WNHw/l14i58moRhHxlLP5F66HJPXaFJ1lI6OX0v5WMZYnHD1VYZP3m/P2LrTaUV3xZsU0NI9qd/sw21dp9mNnMaKwGL0xjYVWW2WylvtunJz8zQn6TXJccklks2jLktXDTeIY6RbLbm+i6a1GMYrPKMVFZvN5JZcTiuqvAAAAAAAAAAAAAAAAAAAABHfTGyEoTipQnFxlFrNSi1k0TW01neOqLVi0bS8Y1y1Yngbc45yw9jfmrOOy+OxLrXzXfl6fRauM9dp9qOvm8xrdHOC28ezPTyc6brRVIGHpGnNKa4x3PsMGenLihtabJtPDLBizXiW5MLyyFCAYSoyBQJCEqBKhAnwGCtxFsKKYOy22WzCC5vm+pJb2+SRW9orG8r1rNp2h7/qTqrXo3D7CynfZlK+3L25LhFfCs3kutvmcTPmnLbfu7nVxYoxxs6IwsoAAAAAAAAAAAAAAAAAAAAABBjcJXdXKq2CnXNZSi+DX07S1L2paLVnaYVvSt6zW0bw8i1u1MtwbdtW1bhuO3xnUuiS6Pi4dOR6PR6+ub1bcrfnw8nnNZoLYfWrzr+HLHQc4IGsxeH2HmvZfy6jTyY+Gd46Ojhy8cbT1RRkU3ZZhUlAwlRkCgSEJUCWfoTQuIxtqpw1bnLc5PhCuP2pS91fN8szFkyVxxvZemO152q9z1M1Po0bXu9ZiLElbe1k38MV7sc+XPnyy4+fPbLPwdTFhjHHxdKYGYAAAAAAAAAAAAAAAAAAAAAAAAKNAcTrH5Pabs7MK1h7HvdeXqZPsW+Hdu6jqabtO9PVyc4+/wC/7zcvU9mUyetj5T9v0860voPFYSWV9UoLPJT9quXZNbu7idrDqMeaPUnz+jiZtNlxT68eTXNZ7nvT5GaY3YYnbnDAvwLW+G9fZ5mtfDMc6tzHqYnldi5tbnufQzBvs2uvOFdonc2MwKASYaids1XVCdtkuEIRc5vuW8ra0RG8ytFZmdod/q15LMRa1ZjZfw9fHzMHGV8u174w+b7DRy66scqc/wANzFpJnnfk9W0TorD4SpU4eqNVa35LjJ9LfGT63vObe9rzvaW/WkVjaGaUWAAAAAAAAAAAAAAAAAAAAAAAAAAAAWzgpJqSTT3NNZprsETt0JjdzmktRtH3ZvzXmZP3qX5v/Lvj8jdxdoZ6d+/jz/bSy9n4L923hy/TnsX5L9+dWK3co2VZv8yf0N2na/8A2r9JaV+x4/jb6w1d/kxxj9/CzXLOVif/AKbjL/5TBb2qz9vNhjsvPWfVtH38mL/woxb9+iP/AHZv+xmOddpu6LfbzZo0eq75r9/Jk4fyQWv+Zi4Q+5XKz9dkxW1+P+MT9o82euiyfymPv+m/0b5KdH1tO2V+JfRKfm4eEEn8zWvrsk9OTYro6R15uw0bovD4aOxh6a6Y81CCjn1t8X2s1LXtad7Tu2a1rXpDMKrAAAAAAAAAAAAAAAAAAAAAAAAAAAAAAAAAAAAAAAAAAAAAAAAAAAAAAAAAAAAAAAAAAAAAAAAAAAAAAAAAAAAAAAAAAAAAAAAAf//Z;" vertex="1" parent="1">
          <mxGeometry x="530.92" y="62.4" width="52.6" height="35" as="geometry" />
        </mxCell>
        <mxCell id="s8ikmo4zl2_qSsBDsND9-47" value="" style="shape=image;verticalLabelPosition=bottom;labelBackgroundColor=default;verticalAlign=top;aspect=fixed;imageAspect=0;image=data:image/jpeg,/9j/4AAQSkZJRgABAQAAAQABAAD/2wCEAAkGBw8PEBMQEBAPFRARDhIPDxAQEA8PDw4QFREWFhUSFRUYHSggGRomHRUVITIhJSkuLy4uGB8zODMtNygtLisBCgoKDg0OGhAQGyslHyUtLS4tLS0tLS0vLSsuLS0vLi8vLS0tLS0tLS0tLS0uLS0tLS0vLS0tLS0tLy0tLS0tLf/AABEIAMIBAwMBEQACEQEDEQH/xAAcAAEAAgMBAQEAAAAAAAAAAAAAAwQCBQYHAQj/xABBEAACAgACBwQGCAQFBQEAAAAAAQIDBBEFBhIhMUFRE2FxgQciMpGhsSNCUmJygsHRFDNDslRzkuHxJJOiwvAV/8QAHAEBAAIDAQEBAAAAAAAAAAAAAAMEAgUGAQcI/8QAPREAAgEDAQQHBgUCBQUBAAAAAAECAwQRBRIhMUEGE1FxgZGhIjJhscHRFEJS4fAV8SMzU2KCJENyssIW/9oADAMBAAIRAxEAPwD3EAAAAAAAAAAAAAAAAAAAAAAAAAAAAAAAAAAAAAAAAAAAAAAAAAAAAAAAAAAAAAAAAAAAAAAAAAAAAAFfEYpQcVzbXkuprb7U6VrOFOXGT8l2skhTck2WDZEYAAAAAAAAAAAAAAAAAAAAAAAAAAAAAAAAAAAAAAAAAAAABjZNRTk+CWZFXrRo05VJ8EsnsU5PCNLNuecnxbz8FyR89qzld7VWpxl6LkjYJKG5F/R+J2lsS9pcO9HTaHqfXR/D1ffj6r7r9ytXpY9pcC6dCVwAAAAAAAAAAAAAAAAAAAAAAAAAAAAV8djaqK3ZbNRhHLNvq3kkurbeWR43gkpUp1ZbEFllg9IwAACjpTTGGwkdrEXV1rkpS9aX4Y8ZeSJaVCpVeIRbMJ1IwWZPBxukvSnhotrD02Wv7U2qYPvXGXvSNtR0OrLfUkl6/wA8zX1dThH3Vk0OI9JOPn7EaK1y2YSnJecnl8DYQ0S3XvNsoVNVrflSRUlrlpKXHFS8oUx+USytLtF+T1f3Kr1K5/V8jKvWvSH+Ks81B/oeS021/QvX7kT1K5X5/kXsNrrpCPG2M+6dVf8A6pFael2z4LHczKOr3MeLT8DqNDafvxtcu0hCKjJJOG0tt5ZtZPPLLNcz5x01cbfq7Wm37W993BevyOo0S5qXUZVJpLG7d6m3SOYisLBuD41zW5remYyg8qcHiS4MfBmxweK21k901xXXvR12l6orqOxU3VFxXb8V/NxTq0tneuBDZpWCxMcNzlW5N9JfVj7lJ+4uyu4K4VDm1kkjaydB1uSeP3NgWysAAAAAAAAAAAAAAAAAAAAAAAAADyD0i6yPFXfw9T+hom8pJ5q23JLa8IvaS82QVJcjs9FsFRp9bP3pLyX7nqWhdIwxVFd0GmpwTeX1ZfWi+9PNeRMnlZOSuKEqFWVOXJmek9I04Wt3X2RrrjxlJ7s+SS4t9y3skhCU3sxWWQNpcTynWX0pXW514GLqr4dtNJ3TXWMd6gvHN+BvLXS4r2qu/wCHIp1rh8InB23Tsk52TlOcvanOTnOXi3vN5TjGKxFYRqarbe8krLCKci1WCCRYgCJk8ERSImTwRBIjZ6HqzRsYepfaW2+/aea+GR8N6S3DuNZqPkmorw/fJ9G0al1VjBdqz5m7IC+AD4uvNcGuKPFlNSTw1wa5Dic7pfDWxveIzz2pqSkuMJLLJP3Iyq3NWVTrZP2u3uNpa1KcqXU/xnZaLxqvrU1x4TX2Zc0dtY3cbqiqi4812M0FxRdGbi/4i2WyEAAAAAAAAAAAAAAAAAAAAAAGn1u0k8Lgr7k8pqvZrfSybUIP3yT8gW7Giq1xCD4Z39y3s8Gi8ll0K0jvto6nU3W2ej1bF1ytrnFzjXFqLVyWSab3JPJJ+Cfip1IxeJvCNRqunu6ip017S9Uc/p7FaR0lb2uIy3Z9nUpJVUxfKMc+PVvezc0tX0+3WzGXjhnOS0O9l+VeaNa9FXx/pt/hcZfBPMv0NcsKjx1qXflfM1txo17TW+m33YfyLGjdF23SyycYp5SlJZZd2XNmepa9a2FPLe1JrKS5+PBL+Ip2mj3F3PGNlLi3y8ObOrwOhaa9+ztPrPJ/DgfOr/pVqN0tna2F2R3evH5HV22gWVu87O0/92/04GGlNKRqzrqS2+EmksofuzadHej1a+cbq7k+r4pZeZfZer9TVa3rNK1ToW6W3zeFhfd/I0sXm83xbzZ9QjFRiorgj59OTk23xJqyORCydEEiJnpei8lVVlwVVeXhso/Pd/J/1Gq3/qS/9mfU7RJW0Ev0r5GyLhmAD4eAxlFNZNZp7mjxrJ6njeiDA/8ATWZrPsp7pfd6PyLOnXjs6y2vcluf38PkSVv8eG/3kdId3xNSAAAAAAAAAAAAAAAAAAAAAADhPTBiHHB1QX9TFRT71GucsveonkuBudDjm4b7F9UeWU09fca+pV5I7SnR5yL1MShUbfElluLlUSpNkEmXKolSbK8mW6olWbK8mQ6YxvYVNr25PZh3N8/Jfobfo5pX9RvVCfuR9qXd2eL9Mmj1u/8Awds5R957l9/A5St9ePFt8T7XGKisLgfK5tybbLEGCBk8CKRGyZcCCRHzPRdXr1PC1PpBQfjD1f0PgvSS3dDVK0e2W0v+W/6n0rSaqqWdN/DHluNxF5oxpT24Jlxn0zB8APgB8kk1kzxpNYYW4v6Lu3dm+MfZ74/7fsdLod45w/Dze+PD4x/bh5Fa4hv2lzL5vysAAAAAAAAAAAAAAAAAAAAAeP8ApB1jjjLlTXk6cPOSU+dlvCUl91cF13voVq092DtdF0/qIdbP3pLh2L7nMQNfI6BFqpFWbIpFypFSbK8i5UipNleTLlSKk2QSZaxOhVi8NKGaU9tSqk+ClFc+55tf8FzRtalpV7GtjMWsSXan9VxRz2tWquqfV81vXecddobFVNxnRbu5xhKcH4SW4+y2uvabcwUqdeG/taT8U8M+e1rC5pyw4Pyz8iFxcd0k0+jTTNnCpCazBp9zyUJwlF4awSwYkiFomjIhkjBo6fUjH5OdDfH6SHjwkvk/efMun2mNqF7BcPZl/wDL+a8jrejV171CXevqdlVPkfPbWrsvZfBnVyRNmbIjPgGD5mD0+ZgGVdjjJSXFP3rmiSjVlRqRqx4r+NeJ5KO0sG7hJNJrg1mjvKdSNSCnHg95rmsPDMjM8AAAAAAAAAAAAAAAAAAOU9I2nXhMJsQeV2IbqraeTjDL6Sa8E0s+Tkjx8Da6PZ/iK+ZL2Y739F/OR47UijUO8RPBFSZJyLdSKkyGRcqRUmyvIu1IpzZXkXKyrMryN/or2F4v5lCv7xq7n32X8yqVTCcFJZSSa6NJr4ktKtUpPapyafwbXyMZQjJYksnmOlZ19vZ2SSr7RqKj7OS3ZruzzZ+iNFVx/T6P4ltz2VnPHf2/HB831BU/xE+rWI53EEZGwkii0SVXyrnGyDynBqSfh+hTvLSndUZUaqzGSwyW3rSo1FOHFHo+idJQxNashx4TjzhLmj4HrGk1dNuXQqcPyvtXb9+xn0iyu4XVJVI+K7GbKq3kyGhXz7MixKPNEhcMD5mD0+ZjJ7g+NnjBs9FXZpx6b14M6jQ7japuk/y8O5/uU7mGHtF83pWAAAAAAAAAAAAAAAAAAPE/SNpJ4jHyS/l0LsK+jlF/SNfmzj+Q8lwO10WiqVunzlvf09N/ic/AoVDexJ6ypMyZbqKkyGRcqKkyvIu1FOZXkXKyrIgkbnRNm5x6PNeDKddczXXMd+TPSumsNhV9NYk8s1BetZLwit/m9xb03Q77UXi3ptr9T3RXj9t5qbi7o0F7cvDmcZpjXOzERddEHXXLc5t52yj03bo+WfifS9D6DUbSpGvdS25LekvdT+b9F8Dm77Wp1IuFJYXbz/Y0MJH0A5poljIYMMGakYbJjgs6N0hZhbO0r3rhOD9mcen+/I02saLQ1Og6VVdz5xfw+q5l+wvqlrU24eK7T0HRWlKsVDbrfD24P2oPo1+p8P1XR7nTK3VV13PlJfD7cj6BaXlO6ht033rmjYwu6lalcNbpFhwJdouJ53mGDFsA+Nnp7gnwNuzZHo3svzL+mVuquYvk93n+5HWhtQZvjtjWAAAAAAAAAAAAAAAAAwuctl7OW1k9lPhtZbswerjvPANYrIvF2xg24VTdEG8s5dm2pTeXOU9ub75sVOB3+nxcaEW+L3vx4eSwirA11Q2USeBVmZst1FSZBIu1FOZXkXKipMryLlZVkV5GGlMTZTh7bK3szjVJxlu3d5d0e3pXF/SpVVmLksrtNbqUpQtpyjxSPOVJyblJuUpPOUpNycn1bfE+60acKcVGCSS4Jbkj5tVblvbJoSJypJE8ZnpE4ksZgwaJFIGODLaB5gn0Vj3hsRCe1lCT2bHy2XxbXPLc/I0HSLSo6hZTp49pb496+/A2+kXjtq6k+HB937HpNGJ2m4y3TjxXJ967j4LOns71wPosoYSkt6ZYhbl4HtOq4dxG4ZJ1LPgXoyTWUR4wfHI9yD5tBNp5R7g6aqakk+sVL3n0KlPbgpdqTNNJYbRmSHgAAAAAAAAAAAAAABXx+IVVVlr4V1TsfhGLf6HqM6cduaiubwfm+qTe9vNve31b3tmVVH0aCwsIt1msqcSzEsQKkzN8C1UVZkEi2rFFZvgVXByeEV57iP8Ajpv2ckveyT8LBL2t5XabNZpXWK+qarrks0s5OST48Evn7jf6T0ftrmm6tZbuSTxw5nPatqE6E+qpcebIcVrPbdh5UzjHbllFzislKOeb3cnuy6PN8DaWnReha3sbim3srek+T5d69e801xqlSrQdKS3vn8DVQkdjGRzs4EsZE0ZFaUCSMzPJA4ksZnpG4kisBg4mXaA82SLEz9XwZjPgZ01vPQ9E2O/BYe9P14w7Kb5vYbgm/d8T4Nr1urXVK9H8re0v+W/6n0nRbjrLeMZdnyNthr9pb+K4/uaKcMMvzhssnhbl4HtOeyyJxyT7RcyiPBi5DJ7gw1PxU7MbjFOTahCmEFyjCLlkl7372ddpVRyUU/0r0PdUpQha0XFcW2+94OxN0aEAAAAAAAAAAAAAAA1Gt0JSwN9cfatqdEe+VrVaXvkZQ95Fi0ajWjJ8nny3ngV1XZ2TgnmoWTgn1UZNZ/Azqrmd9RltQjLtSZNWayqt5aiTwKciQtVMq1ERSQxDzaXJfM9pJJZK845ZLTAjnI82MHO6yYWULtv6lkVk+Skkk4+5JnY9HbqE7fqs+1Fvybzk47XLdxuOs5S+aNbFnSpmglEljIljIrTgSRkSKRWlAkUiVSIJUzJSM1IhdMzUzLJG4GW2MnmyYXT9V+BjN+yz2Ed56R6Nn2mAlF8r7IrzjF/NnxXp0lHVVJc4R+p2WjScaC+DNhFOLzOYe9HSv2kWtoiwQ4M6p8ielLkYyRm5Ex5gx1FhnicXPrY4L8uz+rZ1Ok/5kV/s+bQ1iX+BRj8M+eTtToDngAAAAAAAAAAAAAADC6pTWT4KUZecZKS+KQPU8cD856Xjs4vER+ziro+62SLE17KO/tHmjB/BfI+Vs1tVby/Fk8GUpIlRZqZVmjGSJEt5hnCI8FqmJWmyKTLUsJC2DhZFOMlvT+afJ95XhdVLeoqlJ4kv55FG5pxqxcJrKOS0vq5dQ9qClZX9qMW5Q/El8/kd9pXSK3u1s1GoT7G9z7n9DkbvTalJ5jvRp4y35c+GXP3HRqoks53GqlTfA3GA0Bi7t8aZpfas+jX/AJb35I1l10h0+13Tqpvsj7T9DKOn16nuxfjuNk9TcalmuxfcrHn8YpfEoQ6a6Y3h7a+Lj9m36HstGuMcvP8AY0+NwltEti2uUJcUpLdJdU1ua8DpLO/t7uHWUJqS+HLvXFeJrK1tOlLZmsMh2i7tFd0z7tHqkY9WYXz9VmM5bj2NPeep+japw0fBv+pZZZ5bWyvhE+JdNKyq6rJL8qivTP1Or02ns0F8cmzvXrS/E/mc9Hgjew91GMWetHrR9jLeex3M8aJXMnMMGx1Hw+zCcnxk9p/inKU2vLNI6rRfbqVJ8lsxXgU9WqbUor+bkkdQdCacAAAAAAAAAAAAAAAAHgWv2F7HSeJjlkp2K1d/aRUm/e5e4trfTR22lVNu2h8N3kamplCrE28SzBmvmiaLJ62VpoMswK8iJlukqTTfAgmXqpIp1IsrSLdcyrKJBJE8HzMHKWMZIXFFiDIWRtE8GYNEbRFpLAVYmp12rOLWafBweW6UXyaLmnX1xY141qD39n6l2PtyVbihCtBxmePT3NrNPJtbS4SyfFH3aFTaipNYyuHYcfKlhnzbM9sw6swcJ2zhVWs52TUYLrKTyXzK91cwo05VJvCSbfgZQpOTSXM900dho4emumPs1VxrT67Kyz8+J8BvLiV1cTry4ybfmdZSpKEFFcivdL1n4sR4IvQXsojzMjI+bQwMGbmSZMcHW6u07NCfObc/LgvgkdtotHq7VN8Zb/t6Gjvp7VVrs3GzNuUwAAAAAAAAAAAAAAAAeUemfR2zbRikt04Oib5KUW5Q82nP/SWqDynE6TQq26VN9/3PPqpEFaB00WW4M1tSJPEmgyrJGZarkVZxI5It1sqvK3leSMpOUU2t6Sza57unUkpunN7M93x5FeawskGF05VP2bIPwaz9xdq6NNcUVI1qU/dkmX69KR6opS0mfYHgjxOtWGpXrWJv7MPXk/JcPMU+j9xVeIx8XuRTrXVGnxl5bzmNLa5YnEZxqbpq6xf0sl3y+r5e9nUad0YtbfE6q25fHgvDn4+Rpbi9qVN0Ny9Tn455uW1LOXtvN5z/ABPn5nTRpwSSwt3Ddw7jXODJdsm2jB0w5jaMerO39HGgm5fx1q5NYWLXJrJ2+azS8W+aPnvS/Wtr/oqT/wDP6R+r8jZ2Fr/3JeH3PQnPI+fYNtgoNk5ZSPjZ6epGOZ7g9wT4Ol22RrXGTy8FzfuzLFrQderGmub9OZFWmqcHJ8jvq4KKSW5JJJdEj6LCKjFRXBHMNtvLMjI8AAAAAAAAAAAAAAAABo9ddDfx2CtpS+ky7Sn/ADYb4rz3x/MSUp7Mky3ZXHUV4z5c+4/P1T5Pj0fFE9aB3cJZ4FyuRq6sSxFk8WU5xJUyeEivKIaLdUipOJDJFquRWlEgkjndYNW9tu6iO9vOda3ZvnKPf3HR6VrSglRuHu5S+j+5ob7TctzprvRycqEnk0008mmsmn0aOrTTWUaN08PDMowSMkedWkZqRnkbJ9Uj3aMXAy2vHNvJJb22+CS5sOaSyzFwOx1Z1MlY424yLjWt8cO/as6O3pH7vF88uD4vWulMYxdG0eXzlyXd8fjy5FyhYtvaqcOw9FjLLcuC3JLckfPXlvLNpsmNtm4RiexjvIWyQlwYSkepHqRjtHuDLB0+p+Gi4yuzTe061l9XL2vPP5HWaFZbEHXlxfDu/c0uqVXtKn4nSHQmpAAAAAAAAAAAAAAAAAAAB4l6T9X3hMX28F9DiW5rJboXcZx8/aXi+hcpy2445o63R7vraXVvjH5HK1SKtWBvYstQka6cCeLJosrSRIWK5FacSOSLVcytOJDJFmuZWlEhlEjxmjMPiP5tab+2s4zX5lvJbbULm1/yptLs4ryKda1p1PeRqb9TK3/LunHunGNi+GRuKXSqrHdVpp9zx9zWz0yP5ZEC1Ht/xFf+iX7lj/8AW0v9J+a+xA9Nl+ouYXUSH9XESfdXCMPi3L5FWv0unj/CpJd7z8sGS09c2dJorQuFwu+qqKlw7SXr2d/rPgu5HN3uq3d5/mzeOxbl5IsQtoQ4I2qmazBJgy2xg82TBzPcHqR8cj3B7gilIySM0ihpXSHZRyjvsluguL8cjY6fY/iJ7Uvcjvb+hLTp7T38Dv8AUbAyowNUZe3Latn4zk5fJo7O2kpU1JcHw7uXocxqlVVbqTXBYXksG/JzXgAAAAAAAAAAAAAAAAAAA1usWhqsdh54e3hJZxlzrmvZmvD4rNczKEnF5RPbV5UKiqR5H5+0jo+3CXToujlZB5P7MlylF84tb0yzNKSyjubavGtBThwYrma+rAuxZYhIpTiSpksZFeUTIsVzK84kcolmuZWlEilEs1zK8oELiWIWEEoETiTwsIJQInEmjYROJG4kkZmDRi4mameYMdk+7Z5gbI2xg8wYysPVEyUSC25pblm+S4b+98kT0qSlLEnhGeyZ6t6DliMRtTe1L2rJ/Vqh9mPe+C/5N1RbumrektmmuPa+/wCLIL26VClny7z1SEUkklkkskuiR1CSSwjkG8vLPp6eAAAAAAAAAAAAAAAAAAAAAHL686ow0jUpRyjia0+xsfCS49nP7r68n5py06mzx4Gx0+/laz374vivqjxK+iymyVVsJQshLZnCW5xf7d/MyqQTWUdpSqxnFSi8pklcyhUp4LMZE8ZFOcSVMljIglE9J4TIJRI3EsQsK8oEbiTwsIJQInEnjYROBE4k0bCFwMHEkjYRygYOJJGww2DBxMu0Mdg82Q7cgoNsbGSCV2ZOqeCVQwXdEaMuxctmtZRT9ex+xD933Fu1sqleWI8ObKt1dU7aOZceS5no2itHV4atV1rvlJ+1OXVnV29tChDYh/c5O4uJ157c/wCxcLBAAAAAAAAAAAAAAAAAAAAAAAAAc5rdqjRpGGb9TERjlXelm8vszX1o93LlzzzjNovWV/UtZbt8ea/nM8a0zofE4G3ssRDZbz2JLfXalzhLn81zSPZpSW47O1u6VxHapv7orQmUp0y8pE0ZFWUDNMkjIgcTImhYRSgYuJPCwglAjcSaNhFKBG4k0bCJwMHEkjaROBg4matMXAxcT722Rj1bZ5sZPkHKycYRWc5yUYRXGUnyRPStpz3QWRNxpxcpPCR2Wh9Snunipd/ZVv8Aun+i95t7fSVxqvwX3Ofuta/LQXi/ovudjh6IVxUIRjGMVkoxWSRuYRjFYisI0E5ynLak8skMjEAAAAAAAAAAAAAAAAAAAAAAAAAAAq6R0fTia3VfXGdcuMZLPf1XR963nqeCSlVnSltQeGeX6z+ji6nO3BOVtfF0y/nQX3X9dd3HxDwzp7LXIzxGvufby8ez5dxxClk2nmmm001k01xTXJkE6Z0UZ5WUSxkVZ0yRSJFIgcTPJJGZE4jBLGwicDBxJI2kbpmLiSRsI3TMHE+TxElwi35xS+LM4UIy96SXmRyTXI+YerFXzUK4ralwjHOc3/8AdS7Sp2cXhKU32cEQVZuEXKbUV2npmpeqCwf09z28TJZZ8VTF8Yx73zfku/bwb2cYSXYjk9R1B3D2Ie78zrTI1QAAAAAAAAAAAAAAAAAAAAAAAAAAAAAAAABqdJ6tYHFSc7sPXKbWTnk4za/FHJgtUb24orFObS7OXkcvpH0YYeWbw99lT5RmldBeHCXxZhKCZtqHSGtHdUipd25/b0Ofxfo60hD2OwsXLZscJPykkviQSoPkbWl0gtZe9leGfl9jWWaqaShxwlv5ezn/AGyZDKhLsL0dWs5cKi9V80R//gY7/CYn/s2fsROhPsJf6jaf6kfMnr1a0hLhhL/OKh/c0efh5vkYS1SyXGovn8jZYPUbSM/arrr/AMy2L/s2grOb+BUq67ZR4Ny7l98HQ6O9HcVk8RfKX3Ko7C8HJ5t+SRNGwj+Zmpr9IpPdShj4vf6f3Ou0boqjDR2aa4wT4tb5S/FJ735lynShTWIrBoq9zVry2qkm/wCdhdJCAAAAAAAAAAAAAAAAAAAAAAAAAAAAAAAAAAAAAAAAAAAAAAAAAAAAAAAAAAAAAAAAAAAAAAAAAAAAAAAAAAAAAAAAAAAAAAAAAAAAAAAAAAAAAAAAAAAAH//Z;" vertex="1" parent="1">
          <mxGeometry x="573" y="62.4" width="49.4" height="37" as="geometry" />
        </mxCell>
        <mxCell id="s8ikmo4zl2_qSsBDsND9-48" value="" style="swimlane;startSize=0;" vertex="1" parent="1">
          <mxGeometry x="470" y="43.4" width="180" height="72" as="geometry" />
        </mxCell>
        <mxCell id="s8ikmo4zl2_qSsBDsND9-49" value="&lt;b&gt;&lt;font style=&quot;font-size: 14px;&quot;&gt;Browser&lt;/font&gt;&lt;/b&gt;" style="text;html=1;align=center;verticalAlign=middle;resizable=0;points=[];autosize=1;strokeColor=none;fillColor=none;" vertex="1" parent="1">
          <mxGeometry x="520" y="13.4" width="80" height="30" as="geometry" />
        </mxCell>
        <mxCell id="s8ikmo4zl2_qSsBDsND9-51" value="" style="shape=image;verticalLabelPosition=bottom;labelBackgroundColor=default;verticalAlign=top;aspect=fixed;imageAspect=0;image=data:image/png,iVBORw0KGgoAAAANSUhEUgAAAOEAAADhCAMAAAAJbSJIAAAAflBMVEX///8AAAD8/Pzy8vL29vbv7+/p6enGxsbV1dXMzMy4uLgoKCgtLS1SUlLd3d0wMDBtbW03Nzevr69LS0s8PDxiYmKJiYmrq6u/v7+QkJBDQ0OhoaHb29tdXV1paWkREREeHh6BgYGXl5d1dXUYGBgPDw+EhIR6enojIyNPT0+0dWM8AAAI6klEQVR4nO2d2WLqOAxAJyGErew7gZa1Lf//g1PassW2pCDJoTM+j7dcbBFb1ur8808gEAgEAoFAIBAIBAKBQCAQCAQCgUAg8PeIk0r1RCWJy56KMJVlYzDfrY6Lfmu93+/Xre7iuOpNprVlteyp8Ulq2etoHblYj8ZZ7e+KGc/e+07ZbnnZNJOyJ1ucNDuSpDuzyDplT7kI6XZRSLwf+vM/ImRl0H5AvB/a0+fflJ33z4flO7H/WJYtAkh9xRLv90E2yhbDSWMoIN+JxXPKWH98+5kMn0/GTk9QvhOvz6VYk7mwfCcmlbLFujJ7URAwij6bZQv2S/KqIt+J1VM8xpmafCfKf4zJh6qAUbQr2Shf0rwHDt16mQIO1OU7MS1PwIkXAaNoU5J8sYQRSqNdymZM9bfglVYJFk7HHX3R4M27vql7le+EZ1u84V3AKKr91wX0KmI5AnpcqJ2SBIwiT+om3ZcmYZT6EDDxeQ7maflwp/xZMjaG+mkrX7aoi522gNOSBYyiTFdA/6aMieqZkeiEnIqx1tQ2rqDofJrNdyNBKfq9eTbdvtn/uNITsOmYT/v7r3G1KRMWXg3SH43pigGpOf2pa0rXgFg84J6Wn9l1ETqtQ62Df+wa8G5jNDgH5nB2N6LrY20dAV1rNFrkPvhwjm2Y9x52rk+qrNNqyzXc1vhs7ZEsd9eM/jp/1L3GOn13Ts3it8WGZTBa7d7n22w6nWbb+fvHeJFXlFtLtMm586MPeQEBl8l6PlXPevUw3g6WliqoOOk0t71ztOdofyjuQeUdKSD/6fgfs3003M6wOGDcyL6+euD4q3u15zc/m5pbQOdYFarxkTgrMJyqJopmrv/zIMAx9yo81C2AJ9OSHQlKoSls+gtbYFzXyn4MyFKZiI50TwaM+yLpDINZ0LngQHkgCUWzp2ChjGZmCJRwJPcQ4fhoT2wcE7jGQy5EDDtFR7FxTOAc+lhqGLft9M1BahwLSB2ZVM4NUtknFNOXyMhCSi7GgjN6oSFk9URrGV2D5mFM70kKtBJCRtegFTNdkWFsOKMKZ2T0ODaKXtgkxoeWWKaAV/GL3pEPHvjfSHgY6CIdCgzy8OASy9QRlr3wplpejwZ8+EOgmQppT/QeNN/MP6qwraCd7cLG5x9VSH36QTvvHCPpELYWqCClT3qn/RmkQnfPVQOYQeMhr448RO5GRLaBpn9/xhn4/oG7ipAqdS/VH/AUmE5iDJ9HSjmgHHBxBDOWkR7Ab5cN6LlAjmTeOkK+3FM7BKzPeRkM2EHTtEhvga1TXi4R3gKaseBb4CIe3izgKJuvhpYlOAueewHbbL7Ky6vgLFgKPemC3+2rLTkGCzxeOLG+Cihg11sXBFz6wNHocDTPQyXkL7A64ByIsP+pWH2VA0gFRzx1AB/4YmkDFPhA5Bz5cJzNn4QbcB6csDDsfT7LM+REimDX7Fn2IcfwgM1SzcThPXqmFSzhwttpAecvOD4cLCHLmCgEbDxyniESIvHVLY9EFBUl9BKl+aICZxY4uhTJO/nq60RSwZx4IhLE8OUfItPg/NBIXkQ/4P0DkuzmbBZkeWjWCt2C9Fpx3FTYuZYugHSCVMZzVDrWBeTHyUfS+TxHHMmt6WZHzyCKhhd4R9p8/FxYgWSHeNoA2eOaJW1XkFw+L16KFSX5uCAPUXfM5AlWp+Aj6o21rfIsK6x0bu/BgcL6GnnWMVYn4MFww/LsXC8Vu6lM38/Huja57R5oZZn2dRxoyRC3txstLm0r70S08ZZbi1FFL8HQ3YnoL7xnBxrQO0lVK/eQ5FckoQiwMnbdzi53W+cZ/hULhFsU9G6MI9zJKBBJgetNvtEq1idc9SNhGcMR9W/edNLdKeFaaYniT8rtnWsNEVNn8/gNIscxYZzoIB9YXJKuvBMZirBMI/ljkXbxq0yFMvHusnfJLEZMvMpIRsfFlP3wxUhOpTaIN8FINcqSr7LuyZg3KfkSGKkCXswNvmHDT9akBW4mFksN5Z3ETSNN64Ox1RboNTgrJ6kVuTpbzl7M6Zpz+C7dWh2P/rz+mNKpNN6L3UMlaEvdOxijy7+7dkx/11wWe5RJfdAres2WZHlrLlN6E4N1B8JeVvNmnaJ60kZz0ibq6ztEj+Dcz3u8zhw5md9acEh1+Umw7O3INnYa6e6rW4aIiMVrH78SXNiKMvbI6qJNwGAVntl49CJG6d5c80kNLwESQMGvca0ao4EKO+JBPvMFVcfz7IE6W0pOAW/DtSHfzGKpJr8Y9k6FSktePvQCHoWc0MYc5RKgcaWhaaUMj9wYqpG5rFo80rNd6HLHaa5/Abv3zFolhGnR65f6y7r1VKMmTYrf0afUcGWZyMUybNhEpHrghd80pFW7a1lN14hzx6L0qYHUwq+qUSuos6zTawTKEnig6ju468dEsSnQrGS9LYRIJzc1hIce/UgueAe6ZhohMXRmrlu9kfXaw+FqMygUXawU8ixaqoW7ZhZDonoP7mvKo1zzaZzOIlcOFLlkWf3NQUacSEJzF5BQvwwrNkrdBNYpXULtpPoJs16Rv27IEvppDzA72Nl5WKqmUb9n5BdToe6YhjBVQm/vmTVzNZ88M4MooccXIlnSUa0po+yDJqHXNz5ZM27HrHFRBHFay+iKnSSh51daOUs0Ru3Vqj36NlD75G+jSOj9tWRL3Foe4d/yA8FqW5fwMusOOi26hGhAcVTK24FTLPhAXqWohKuSXrkeI7lMMQk33lo5DeCkA1lCpD7Pzz0/DurQ3PrUnx5szemWoGNuqQDVNl0JCct+H/AXTWcCkC6hM4pxKP+dzl9UXZ3WZFfHGacZl6RDDRyPkSvhwU/jGInEWstLDorZJRQtI+PTsSzVT6q3UbUUko5LsWJAakYakC6hkdY6en1xLJlZTkZyCiwvofHep+ehdpcLJ+/D+9Oi7dkRLEjnxgKg5xduNvHu+fZfnsr03PNJn+u5KH/BCYX4pD5ZtLqFlOFy3G0tJt7deAZxpehhlvyRpxcIBAKBQCAQCAQCgUAgEAgEAoFAIBD4H/MvMtRywOHdNNMAAAAASUVORK5CYII=;" vertex="1" parent="1">
          <mxGeometry x="260" y="166.6" width="40" height="40" as="geometry" />
        </mxCell>
        <mxCell id="s8ikmo4zl2_qSsBDsND9-52" value="&lt;b&gt;&lt;font style=&quot;font-size: 14px;&quot;&gt;CI/CD&lt;/font&gt;&lt;/b&gt;" style="text;html=1;align=center;verticalAlign=middle;resizable=0;points=[];autosize=1;strokeColor=none;fillColor=none;" vertex="1" parent="1">
          <mxGeometry x="290" y="176.6" width="60" height="30" as="geometry" />
        </mxCell>
        <mxCell id="s8ikmo4zl2_qSsBDsND9-54" value="&lt;b&gt;&lt;font style=&quot;font-size: 19px;&quot;&gt;DB Server&lt;/font&gt;&lt;/b&gt;" style="text;html=1;align=center;verticalAlign=middle;resizable=0;points=[];autosize=1;strokeColor=none;fillColor=none;" vertex="1" parent="1">
          <mxGeometry x="570" y="473" width="120" height="40" as="geometry" />
        </mxCell>
      </root>
    </mxGraphModel>
  </diagram>
</mxfile>
